<svg xmlns="http://www.w3.org/2000/svg" xmlns:xlink="http://www.w3.org/1999/xlink" width="18" height="18" viewBox="0 0 18 18">
  <defs>
    <clipPath id="clip-path">
      <circle id="Ellipse_827" data-name="Ellipse 827" cx="9" cy="9" r="9" transform="translate(0)" fill="none"/>
    </clipPath>
  </defs>
  <g id="Portuguese" transform="translate(-20)">
    <g id="Group_7681" data-name="Group 7681" transform="translate(20)" clip-path="url(#clip-path)">
      <rect id="Rectangle_6718" data-name="Rectangle 6718" width="16.2" height="18" transform="translate(9)" fill="#e00c10"/>
      <rect id="Rectangle_6719" data-name="Rectangle 6719" width="10.8" height="18" transform="translate(-1.8)" fill="#10662a"/>
      <path id="Path_5427" data-name="Path 5427" d="M82.16,79.3c-1.352-.041-7.554-3.9-7.6-4.511l.343-.569c.615.89,6.955,4.64,7.577,4.507l-.324.572" transform="translate(-69.652 -67.537)" fill="#fcf800" fill-rule="evenodd"/>
      <path id="Path_5428" data-name="Path 5428" d="M81.591,77.462c-.023.041-.066.043-.147.034a16.269,16.269,0,0,1-3.857-1.883c-2.113-1.26-3.859-2.408-3.669-2.709l.052-.091.01,0c-.17.508,3.445,2.568,3.658,2.7,2.092,1.291,3.855,2.045,4.011,1.849Zm-7.358-5.174c-.121.325,1.618,1.4,3.711,2.665a14.346,14.346,0,0,0,4.031,1.939,1.112,1.112,0,0,0,.061-.112c-.025.038-.086.049-.181.022a21.057,21.057,0,0,1-3.867-1.94,17.429,17.429,0,0,1-3.662-2.552.262.262,0,0,1-.027-.127h-.006l-.052.091Z" transform="translate(-69.052 -65.686)" fill="#fcf800" fill-rule="evenodd"/>
      <path id="Path_5429" data-name="Path 5429" d="M81.376,77.383a.612.612,0,0,1-.065,0,16.308,16.308,0,0,1-3.862-1.884c-2.4-1.429-3.6-2.29-3.685-2.631a.12.12,0,0,1,.011-.1l.051-.09a.013.013,0,0,1,.015-.006l.01,0a.013.013,0,0,1,.007.006.013.013,0,0,1,0,.01c-.132.393,2.144,1.8,3.512,2.6l.14.083c2.065,1.274,3.843,2.042,3.994,1.852a.013.013,0,0,1,.021.014l-.057.1h0a.1.1,0,0,1-.094.043m-7.547-4.659-.032.057a.094.094,0,0,0-.008.076c.08.334,1.282,1.189,3.673,2.615a16.3,16.3,0,0,0,3.852,1.881c.079.009.115.006.134-.027v0l.031-.053c-.368.111-2.333-.857-3.982-1.874l-.14-.083c-2.343-1.375-3.529-2.245-3.529-2.59M81.8,76.783a17.157,17.157,0,0,1-3.992-1.951c-2.253-1.364-3.838-2.355-3.717-2.68h0l.007-.014.053-.092a.014.014,0,0,1,.012-.006h.006a.013.013,0,0,1,.009,0,.013.013,0,0,1,0,.009.251.251,0,0,0,.025.12,18.313,18.313,0,0,0,3.658,2.548,21.367,21.367,0,0,0,3.864,1.939c.083.024.144.018.167-.017a.013.013,0,0,1,.009-.006.013.013,0,0,1,.013.005c.006.008.007.01-.059.123l0,0,0,0a.085.085,0,0,1-.054.013m-7.685-4.621c-.12.331,1.913,1.562,3.706,2.649a14.7,14.7,0,0,0,4.015,1.942h0l.035-.062a.253.253,0,0,1-.15-.007,21.393,21.393,0,0,1-3.87-1.941c-2.986-1.8-3.528-2.314-3.667-2.557a.264.264,0,0,1-.028-.1Z" transform="translate(-68.921 -65.555)"/>
      <path id="Path_5430" data-name="Path 5430" d="M80.068,74.883a12.815,12.815,0,0,0,3.985-.566l-.207-.335a11.354,11.354,0,0,1-3.79.55,7.8,7.8,0,0,1-3.756-.617l-.2.357a9.882,9.882,0,0,0,3.963.611" transform="translate(-71.056 -67.263)" fill="#fcf800" fill-rule="evenodd"/>
      <path id="Path_5431" data-name="Path 5431" d="M83.366,73.582a4.8,4.8,0,0,1-1.514.406,16.316,16.316,0,0,1-2.34.164,15.814,15.814,0,0,1-2.26-.145,6.238,6.238,0,0,1-1.576-.4c.017-.03.035-.06.054-.09a5.4,5.4,0,0,0,1.532.389,17.3,17.3,0,0,0,4.573-.025,4.052,4.052,0,0,0,1.465-.412Zm.182.34a5.825,5.825,0,0,1-1.583.427,16.407,16.407,0,0,1-2.462.177,17.533,17.533,0,0,1-2.359-.148,6.9,6.9,0,0,1-1.655-.437c.018-.035.029-.06.046-.092a7.191,7.191,0,0,0,1.624.429,17.364,17.364,0,0,0,2.34.149,16.5,16.5,0,0,0,2.445-.181,3.988,3.988,0,0,0,1.537-.439Z" transform="translate(-70.495 -66.86)" fill="#fcf800" fill-rule="evenodd"/>
      <path id="Path_5432" data-name="Path 5432" d="M79.355,74.411a17.575,17.575,0,0,1-2.341-.149,6.991,6.991,0,0,1-1.638-.429l-.02-.008a.013.013,0,0,1-.007-.007.013.013,0,0,1,0-.01l.02-.04.026-.053a.013.013,0,0,1,.016-.006,7.187,7.187,0,0,0,1.621.428,17.459,17.459,0,0,0,2.32.149h.018a16.615,16.615,0,0,0,2.443-.181,4.025,4.025,0,0,0,1.529-.434.014.014,0,0,1,.011,0,.013.013,0,0,1,.01.006l.067.115a.013.013,0,0,1,0,.013l0,0a5.865,5.865,0,0,1-1.59.43,16.6,16.6,0,0,1-2.465.178Zm-3.977-.6.007,0a6.958,6.958,0,0,0,1.632.428,17.532,17.532,0,0,0,2.338.149h.019a16.58,16.58,0,0,0,2.461-.177,6.429,6.429,0,0,0,1.57-.416L83.35,73.7a4.242,4.242,0,0,1-1.532.431,16.633,16.633,0,0,1-2.447.181,17.5,17.5,0,0,1-2.342-.149,7.214,7.214,0,0,1-1.616-.425l-.021.042-.014.027m3.987.23a16.045,16.045,0,0,1-2.243-.145,6.178,6.178,0,0,1-1.505-.369l-.073-.027a.013.013,0,0,1-.008-.008.012.012,0,0,1,0-.011l.054-.09a.013.013,0,0,1,.017,0,5.273,5.273,0,0,0,1.528.388,16.091,16.091,0,0,0,2.228.139h.02a16.067,16.067,0,0,0,2.321-.164,4.1,4.1,0,0,0,1.459-.409.013.013,0,0,1,.01,0,.013.013,0,0,1,.009.006l.066.109a.013.013,0,0,1,0,.017,4.772,4.772,0,0,1-1.52.408,16.488,16.488,0,0,1-2.342.164Zm-3.8-.56.059.022a6.158,6.158,0,0,0,1.5.368,16.038,16.038,0,0,0,2.239.145h.019a16.46,16.46,0,0,0,2.338-.163,4.994,4.994,0,0,0,1.5-.4l-.053-.088a4.171,4.171,0,0,1-1.46.406,16.076,16.076,0,0,1-2.324.165h-.02a16.105,16.105,0,0,1-2.232-.14,5.418,5.418,0,0,1-1.525-.385l-.04.066" transform="translate(-70.367 -66.732)"/>
      <path id="Path_5433" data-name="Path 5433" d="M70.712,98.52a11.721,11.721,0,0,0,4.432.686,12.671,12.671,0,0,0,4.445-.655l-.021-.447c-.243.378-2.467.741-4.441.726a10.9,10.9,0,0,1-4.418-.712Z" transform="translate(-66.144 -89.276)" fill="#fcf800" fill-rule="evenodd"/>
      <path id="Path_5434" data-name="Path 5434" d="M79.122,97.673v.106a4.893,4.893,0,0,1-1.765.5,18.286,18.286,0,0,1-2.742.187,17.246,17.246,0,0,1-2.6-.179,6.51,6.51,0,0,1-1.862-.5v-.124a6.646,6.646,0,0,0,1.877.526,17.176,17.176,0,0,0,2.588.177,18.175,18.175,0,0,0,2.727-.186,5.686,5.686,0,0,0,1.78-.5m0,.379v.107a4.9,4.9,0,0,1-1.766.5,18.284,18.284,0,0,1-2.742.187,17.281,17.281,0,0,1-2.6-.178,6.53,6.53,0,0,1-1.862-.5V98.04a6.648,6.648,0,0,0,1.877.526,17.138,17.138,0,0,0,2.588.177,18.2,18.2,0,0,0,2.727-.186,5.687,5.687,0,0,0,1.78-.5Z" transform="translate(-65.635 -88.872)" fill="#fcf800" fill-rule="evenodd"/>
      <path id="Path_5435" data-name="Path 5435" d="M74.483,98.726a17.4,17.4,0,0,1-2.605-.178,6.564,6.564,0,0,1-1.867-.5A.012.012,0,0,1,70,98.034V97.91a.013.013,0,0,1,.02-.011,6.71,6.71,0,0,0,1.872.524,17.28,17.28,0,0,0,2.586.177,18.276,18.276,0,0,0,2.726-.186,5.692,5.692,0,0,0,1.773-.5.013.013,0,0,1,.022.009v.106a.013.013,0,0,1,0,.008,4.885,4.885,0,0,1-1.773.5,18.35,18.35,0,0,1-2.744.187m-4.453-.7a6.556,6.556,0,0,0,1.851.5,17.388,17.388,0,0,0,2.6.178,18.333,18.333,0,0,0,2.741-.187,5.11,5.11,0,0,0,1.755-.489v-.075a6.1,6.1,0,0,1-1.766.491,18.3,18.3,0,0,1-2.73.186,17.312,17.312,0,0,1-2.59-.177,6.943,6.943,0,0,1-1.862-.515Zm4.453.32a17.418,17.418,0,0,1-2.605-.178,6.564,6.564,0,0,1-1.867-.5.013.013,0,0,1-.006-.011v-.124a.013.013,0,0,1,.007-.011.013.013,0,0,1,.013,0,6.71,6.71,0,0,0,1.871.524,17.244,17.244,0,0,0,2.586.177,18.231,18.231,0,0,0,2.726-.186,5.687,5.687,0,0,0,1.774-.5.014.014,0,0,1,.022.01v.106a.013.013,0,0,1,0,.008,4.889,4.889,0,0,1-1.773.5,18.35,18.35,0,0,1-2.744.187m-4.453-.7a6.549,6.549,0,0,0,1.851.495,17.377,17.377,0,0,0,2.6.178,18.331,18.331,0,0,0,2.74-.187,5.115,5.115,0,0,0,1.755-.489V97.57a6.105,6.105,0,0,1-1.766.491,18.271,18.271,0,0,1-2.73.186,17.259,17.259,0,0,1-2.59-.178,6.951,6.951,0,0,1-1.862-.515Z" transform="translate(-65.505 -88.742)"/>
      <path id="Path_5436" data-name="Path 5436" d="M80.495,123.624a15.322,15.322,0,0,1-3.9-.6l.252.394a10.513,10.513,0,0,0,3.668.6,9.413,9.413,0,0,0,3.623-.589l.259-.408a13.847,13.847,0,0,1-3.9.611" transform="translate(-71.5 -111.942)" fill="#fcf800" fill-rule="evenodd"/>
      <path id="Path_5437" data-name="Path 5437" d="M83.662,122.433l0,0-.088.145a9.547,9.547,0,0,1-1.731.383,13.722,13.722,0,0,1-2.125.18,14.621,14.621,0,0,1-3.952-.588l-.05-.1a16.724,16.724,0,0,0,4,.585,14.858,14.858,0,0,0,2.111-.181,10.956,10.956,0,0,0,1.724-.382l-.007-.009Zm-.224.369q-.057.087-.116.171a10.237,10.237,0,0,1-1.37.35,12.423,12.423,0,0,1-2.251.205,10.824,10.824,0,0,1-3.738-.638l-.053-.09.008-.013.089.034a12.068,12.068,0,0,0,3.7.609,12.655,12.655,0,0,0,2.207-.2,6.464,6.464,0,0,0,1.49-.408l.031-.017Z" transform="translate(-70.704 -111.414)" fill="#fcf800" fill-rule="evenodd"/>
      <path id="Path_5438" data-name="Path 5438" d="M79.577,123.415a10.741,10.741,0,0,1-3.743-.639.011.011,0,0,1-.006-.005l-.053-.09a.012.012,0,0,1,0-.013l.008-.014a.012.012,0,0,1,.015,0l.089.035a11.949,11.949,0,0,0,3.7.608h.035a12.71,12.71,0,0,0,2.169-.2,6.157,6.157,0,0,0,1.486-.406l.031-.017a.013.013,0,0,1,.015,0,.012.012,0,0,1,0,.015c-.039.06-.079.117-.117.171l-.006,0a10.183,10.183,0,0,1-1.372.35,12.576,12.576,0,0,1-2.253.205m-3.729-.659a11.273,11.273,0,0,0,3.729.635,12.565,12.565,0,0,0,2.248-.2,10.167,10.167,0,0,0,1.364-.348c.028-.04.057-.082.086-.126a6.558,6.558,0,0,1-1.48.4,12.732,12.732,0,0,1-2.173.2h-.036a11.972,11.972,0,0,1-3.706-.609l-.078-.03Zm3.75.276a14.741,14.741,0,0,1-3.956-.589.012.012,0,0,1-.007-.006l-.05-.1a.012.012,0,0,1,.014-.018,16.659,16.659,0,0,0,4,.585,14.1,14.1,0,0,0,1.923-.155l.186-.026a11.1,11.1,0,0,0,1.7-.375h0a.012.012,0,0,1,0-.005.012.012,0,0,1,.008-.008l.113-.042h0a.012.012,0,0,1,.01.005l0,0a.013.013,0,0,1,0,.015l-.088.146a.011.011,0,0,1-.006.005,9.727,9.727,0,0,1-1.733.384l-.248.035a12.775,12.775,0,0,1-1.879.145m-3.944-.611a14.727,14.727,0,0,0,3.944.586,12.78,12.78,0,0,0,1.875-.145l.248-.035a9.726,9.726,0,0,0,1.724-.381l.071-.118-.072.027a.013.013,0,0,1,0,.007.012.012,0,0,1-.008.008l-.019.006a11.138,11.138,0,0,1-1.707.376l-.186.026a14.094,14.094,0,0,1-1.927.155,16.656,16.656,0,0,1-3.979-.579Z" transform="translate(-70.58 -111.289)"/>
      <path id="Path_5439" data-name="Path 5439" d="M75.1,51.068a4.4,4.4,0,1,1-4.429,4.4,4.438,4.438,0,0,1,4.429-4.4m3.992,4.3a4.248,4.248,0,0,1-1.157,2.877,4.176,4.176,0,0,1-2.846,1.176,3.96,3.96,0,0,1-3.944-3.984,3.986,3.986,0,0,1,1.4-2.977,4.192,4.192,0,0,1,2.692-.95,3.988,3.988,0,0,1,3.856,3.858" transform="translate(-66.107 -46.472)" fill="#fcf800" fill-rule="evenodd"/>
      <path id="Path_5440" data-name="Path 5440" d="M75.06,59.616a4.429,4.429,0,1,1,4.445-4.428,4.442,4.442,0,0,1-4.445,4.428m0-8.831a4.4,4.4,0,1,0,4.419,4.4,4.416,4.416,0,0,0-4.419-4.4m0,8.734a4.357,4.357,0,1,1,3.068-1.272,4.325,4.325,0,0,1-3.068,1.272m0-8.637a4.332,4.332,0,1,0,3.05,1.265,4.3,4.3,0,0,0-3.05-1.265m0,8.36a4.082,4.082,0,1,1,2.874-1.192,4.052,4.052,0,0,1-2.874,1.192m0-8.09a4.056,4.056,0,1,0,2.856,1.184,4.026,4.026,0,0,0-2.856-1.184m0,7.992a3.984,3.984,0,1,1,2.805-1.163,3.954,3.954,0,0,1-2.805,1.163m0-7.9A3.958,3.958,0,1,0,77.851,52.4a3.929,3.929,0,0,0-2.787-1.156" transform="translate(-66.06 -46.191)"/>
      <path id="Path_5441" data-name="Path 5441" d="M117.8,50.134v.049h-.28v-.048h-.1v8.973h.1v-.042h.281v.043h.1V50.134" transform="translate(-108.653 -45.622)" fill="#fcf800" fill-rule="evenodd"/>
      <path id="Path_5442" data-name="Path 5442" d="M118.711,59.459h-.271a.013.013,0,0,1,0-.026h.271a.013.013,0,1,1,0,.026m0-8.872h-.269a.013.013,0,1,1,0-.026h.269a.013.013,0,0,1,0,.026" transform="translate(-109.569 -46.011)"/>
      <path id="Path_5443" data-name="Path 5443" d="M117.763,59h-.1a.013.013,0,0,1-.013-.013V50.013a.013.013,0,0,1,.013-.013h.1a.013.013,0,0,1,.013.013v8.975a.013.013,0,0,1,0,.009.013.013,0,0,1-.009,0m-.084-.025h.071V50.026h-.071Zm-.293.025h-.1a.013.013,0,0,1-.013-.013V50.013a.013.013,0,0,1,.013-.013h.1a.013.013,0,0,1,.013.013v8.975a.013.013,0,0,1,0,.009.013.013,0,0,1-.009,0m-.085-.025h.072V50.026H117.3Z" transform="translate(-108.521 -45.5)"/>
      <path id="Path_5444" data-name="Path 5444" d="M70.578,89.463c.556-.51,2.606-.84,4.426-.832s3.974.381,4.443.821l0,.38c-.393-.368-2.067-.806-4.444-.811s-4.1.446-4.43.821Z" transform="translate(-66.026 -80.654)" fill="#fcf800" fill-rule="evenodd"/>
      <path id="Path_5445" data-name="Path 5445" d="M79.324,98.3a.013.013,0,0,1-.013-.013v-.328a.013.013,0,0,1,.026,0v.328a.013.013,0,0,1-.013.013m-8.885-.013a.013.013,0,0,1-.013-.013v-.328a.013.013,0,0,1,.026,0v.328a.013.013,0,0,1-.013.013" transform="translate(-65.888 -89.115)"/>
      <path id="Path_5446" data-name="Path 5446" d="M74.633,88.162a15.428,15.428,0,0,1,2.868.255,3.342,3.342,0,0,1,1.616.605v.115a3.555,3.555,0,0,0-1.635-.623,15.323,15.323,0,0,0-2.849-.253,15.857,15.857,0,0,0-2.9.259c-.61.115-1.488.373-1.585.618v-.12a2.941,2.941,0,0,1,1.566-.6,15.983,15.983,0,0,1,2.923-.258m0,.379A15.428,15.428,0,0,1,77.5,88.8a3.341,3.341,0,0,1,1.616.605v.115a3.56,3.56,0,0,0-1.635-.623,15.317,15.317,0,0,0-2.849-.253,15.936,15.936,0,0,0-2.909.259c-.632.125-1.475.373-1.58.618V89.4c.058-.169.685-.423,1.566-.6a16,16,0,0,1,2.923-.258" transform="translate(-65.63 -80.227)" fill="#fcf800" fill-rule="evenodd"/>
      <path id="Path_5447" data-name="Path 5447" d="M70.013,89.4h0a.013.013,0,0,1-.01-.013v-.12a.013.013,0,0,1,0,0c.062-.182.725-.437,1.576-.607A16.079,16.079,0,0,1,74.5,88.4v0h.03a15.424,15.424,0,0,1,2.841.255A3.314,3.314,0,0,1,79,89.263a.013.013,0,0,1,0,.008v.115a.013.013,0,0,1-.008.012.013.013,0,0,1-.014,0,3.655,3.655,0,0,0-1.627-.618,15.3,15.3,0,0,0-2.847-.253,15.95,15.95,0,0,0-2.907.258c-.689.136-1.474.385-1.571.61a.013.013,0,0,1-.012.008m4.52-.9a15.307,15.307,0,0,1,2.821.253,3.882,3.882,0,0,1,1.62.6v-.077a3.332,3.332,0,0,0-1.606-.6,15.393,15.393,0,0,0-2.836-.255H74.5a16.051,16.051,0,0,0-2.921.258c-.7.14-1.485.393-1.556.588v.071a3.66,3.66,0,0,1,1.565-.584A15.965,15.965,0,0,1,74.5,88.5h.031m-4.52.524h0a.013.013,0,0,1-.01-.013v-.12a.013.013,0,0,1,0,0,2.94,2.94,0,0,1,1.576-.607A16.07,16.07,0,0,1,74.5,88.02v0h.03a15.422,15.422,0,0,1,2.84.255A3.321,3.321,0,0,1,79,88.885a.013.013,0,0,1,0,.008v.115a.013.013,0,0,1-.023.008A3.653,3.653,0,0,0,77.35,88.4a15.276,15.276,0,0,0-2.816-.253H74.5a15.921,15.921,0,0,0-2.9.258c-.7.132-1.488.391-1.576.61a.013.013,0,0,1-.012.008m4.52-.9a15.307,15.307,0,0,1,2.821.253,3.885,3.885,0,0,1,1.62.6V88.9a3.338,3.338,0,0,0-1.606-.6,15.454,15.454,0,0,0-2.865-.255,16.051,16.051,0,0,0-2.921.258,2.954,2.954,0,0,0-1.556.588v.07a3.585,3.585,0,0,1,1.57-.583A15.94,15.94,0,0,1,74.5,88.12h.031" transform="translate(-65.5 -80.098)"/>
      <path id="Path_5448" data-name="Path 5448" d="M79.905,66.695a9.564,9.564,0,0,1,3.747.566l.24.414a9.667,9.667,0,0,0-3.984-.579,10.116,10.116,0,0,0-3.947.6l.287-.478a10.1,10.1,0,0,1,3.658-.521" transform="translate(-70.924 -60.692)" fill="#fcf800" fill-rule="evenodd"/>
      <path id="Path_5449" data-name="Path 5449" d="M161.9,73.867a.013.013,0,0,1-.011-.007l-.137-.254a.013.013,0,0,1,.005-.017.013.013,0,0,1,.017.005l.137.254a.013.013,0,0,1-.005.017l-.006,0" transform="translate(-148.989 -66.964)"/>
      <path id="Path_5450" data-name="Path 5450" d="M79.659,66.29a14.663,14.663,0,0,1,2.482.172,4.034,4.034,0,0,1,1.285.419l.1.165a3.406,3.406,0,0,0-1.431-.486,15.88,15.88,0,0,0-2.44-.172,14.859,14.859,0,0,0-2.5.183,4.08,4.08,0,0,0-1.24.381l.092-.138a4.448,4.448,0,0,1,1.133-.341,15,15,0,0,1,2.512-.182m0,.378a15.011,15.011,0,0,1,2.573.18,4.7,4.7,0,0,1,1.407.413l.071.125a5.173,5.173,0,0,0-1.493-.442,14.5,14.5,0,0,0-2.561-.176,14.889,14.889,0,0,0-2.6.175,4.588,4.588,0,0,0-1.4.434l.07-.132a4.668,4.668,0,0,1,1.308-.4,15.285,15.285,0,0,1,2.615-.179" transform="translate(-70.656 -60.324)" fill="#fcf800" fill-rule="evenodd"/>
      <path id="Path_5451" data-name="Path 5451" d="M83.58,67.267l-.007,0a5.126,5.126,0,0,0-1.488-.44,14.4,14.4,0,0,0-2.558-.176h-.094a14.627,14.627,0,0,0-2.5.175,4.567,4.567,0,0,0-1.391.431.013.013,0,0,1-.019-.016l.07-.132A.013.013,0,0,1,75.6,67.1a4.763,4.763,0,0,1,1.312-.4,18.834,18.834,0,0,1,5.193,0,4.629,4.629,0,0,1,1.415.417l.073.127a.013.013,0,0,1,0,.016.013.013,0,0,1-.009,0M79.6,66.624a14.17,14.17,0,0,1,2.494.176,5.66,5.66,0,0,1,1.455.418l-.047-.083a4.815,4.815,0,0,0-1.4-.407,18.81,18.81,0,0,0-5.184,0,4.752,4.752,0,0,0-1.3.4l-.045.086a5.14,5.14,0,0,1,1.36-.409,14.912,14.912,0,0,1,2.6-.175H79.6m3.8.3a.013.013,0,0,1-.01,0,3.45,3.45,0,0,0-1.424-.482,15.6,15.6,0,0,0-2.438-.172,14.869,14.869,0,0,0-2.493.183,4.19,4.19,0,0,0-1.236.379.013.013,0,0,1-.016,0,.013.013,0,0,1,0-.016l.092-.138,0,0a4.464,4.464,0,0,1,1.136-.342,15.034,15.034,0,0,1,2.514-.183,14.508,14.508,0,0,1,2.485.172,4.018,4.018,0,0,1,1.29.421l0,0,.1.165a.013.013,0,0,1,0,.017.013.013,0,0,1-.008,0m-3.871-.684a15.623,15.623,0,0,1,2.442.173,4.2,4.2,0,0,1,1.372.431l-.056-.089a4.019,4.019,0,0,0-1.278-.415,14.509,14.509,0,0,0-2.48-.172,15.017,15.017,0,0,0-2.51.182,4.459,4.459,0,0,0-1.126.338l-.059.088a4.663,4.663,0,0,1,1.2-.354,14.887,14.887,0,0,1,2.5-.184" transform="translate(-70.526 -60.192)"/>
      <path id="Path_5452" data-name="Path 5452" d="M82.274,114.9a11.618,11.618,0,0,0-2.2-.167c-2.749.032-3.637.562-3.745.723l-.206-.334a7.4,7.4,0,0,1,3.966-.76,14.039,14.039,0,0,1,2.378.2Z" transform="translate(-71.069 -104.07)" fill="#fcf800" fill-rule="evenodd"/>
      <path id="Path_5453" data-name="Path 5453" d="M76.633,123.457a.013.013,0,0,1-.011-.006l-.135-.231a.013.013,0,0,1,.022-.013l.135.231a.013.013,0,0,1,0,.018l-.006,0" transform="translate(-71.401 -112.112)"/>
      <path id="Path_5454" data-name="Path 5454" d="M79.7,113.72a13.774,13.774,0,0,1,2.406.208l-.055.1a12.591,12.591,0,0,0-2.347-.2,11.3,11.3,0,0,0-3.079.358c-.317.092-.864.291-.882.448l-.052-.092c.012-.143.486-.329.912-.453a11.35,11.35,0,0,1,3.1-.362m-.035.383a13.37,13.37,0,0,1,2.24.177l-.052.092a11.731,11.731,0,0,0-2.185-.167,10.6,10.6,0,0,0-2.934.342c-.282.078-.748.259-.8.408l-.052-.086c.015-.088.3-.271.824-.419a10.667,10.667,0,0,1,2.956-.348" transform="translate(-70.675 -103.485)" fill="#fcf800" fill-rule="evenodd"/>
      <path id="Path_5455" data-name="Path 5455" d="M75.809,114.845a.012.012,0,0,1-.011-.006l-.052-.086a.013.013,0,0,1,0-.008c.017-.1.315-.283.833-.428a10.591,10.591,0,0,1,2.959-.348h0a13.462,13.462,0,0,1,2.242.178.012.012,0,0,1,.009.007.012.012,0,0,1,0,.011l-.052.092a.013.013,0,0,1-.013.006,11.838,11.838,0,0,0-2.182-.167,10.454,10.454,0,0,0-2.931.341c-.3.083-.744.263-.788.4a.012.012,0,0,1-.01.008h0m-.039-.1.037.062a1.763,1.763,0,0,1,.794-.393,10.49,10.49,0,0,1,2.938-.342h.086a11.625,11.625,0,0,1,2.092.166l.04-.07a13.531,13.531,0,0,0-2.221-.174,10.574,10.574,0,0,0-2.952.347c-.525.147-.793.326-.815.4m-.155-.228a.012.012,0,0,1-.011-.006l-.052-.092a.012.012,0,0,1,0-.007c.016-.187.708-.4.92-.464a11.149,11.149,0,0,1,3.1-.363h0a13.806,13.806,0,0,1,2.408.209.012.012,0,0,1,.009.007.012.012,0,0,1,0,.011l-.055.1a.012.012,0,0,1-.013.006,12.709,12.709,0,0,0-2.344-.2,11.063,11.063,0,0,0-3.075.358c-.41.119-.858.307-.873.438a.012.012,0,0,1-.01.011h0m-.04-.107.036.064c.089-.194.8-.4.882-.429a11.087,11.087,0,0,1,3.082-.359,12.762,12.762,0,0,1,2.34.2l.042-.074a13.853,13.853,0,0,0-2.387-.2,11.126,11.126,0,0,0-3.094.362c-.533.155-.886.326-.9.439" transform="translate(-70.551 -103.362)"/>
      <path id="Path_5456" data-name="Path 5456" d="M75.374,72.425c1.362-.018,7.651,3.828,7.669,4.536l-.389.595c-.176-.822-6.557-4.565-7.61-4.494l.33-.637" transform="translate(-70.089 -65.907)" fill="#fcf800" fill-rule="evenodd"/>
      <path id="Path_5457" data-name="Path 5457" d="M159.814,123.786l-.007,0a.013.013,0,0,1,0-.018l.33-.511a.013.013,0,0,1,.018,0,.013.013,0,0,1,0,.018l-.33.511a.013.013,0,0,1-.011.006" transform="translate(-147.219 -112.157)"/>
      <path id="Path_5458" data-name="Path 5458" d="M75.459,72.656a.013.013,0,0,0-.017.005l-.3.563a.013.013,0,0,0,.005.017h.006a.013.013,0,0,0,.011-.007l.3-.563a.013.013,0,0,0-.005-.017" transform="translate(-70.179 -66.116)"/>
      <path id="Path_5459" data-name="Path 5459" d="M82.126,76.323c.16-.314-1.563-1.607-3.7-2.866-2.185-1.234-3.76-1.96-4.048-1.743l-.064.116c0,.007,0-.008.016-.018a.282.282,0,0,1,.178-.043,13.788,13.788,0,0,1,3.9,1.789c.87.5,3.674,2.3,3.663,2.8,0,.043,0,.052-.013.074l.071-.108m-8.077-3.965c.253-.171,2.11.653,4.054,1.821s3.791,2.494,3.623,2.741l-.055.086-.025.02c.005,0,.033-.038,0-.13a13.922,13.922,0,0,0-3.577-2.626c-2.125-1.263-3.9-2.023-4.074-1.806l.056-.106h0Z" transform="translate(-69.133 -65.224)" fill="#fcf800" fill-rule="evenodd"/>
      <path id="Path_5460" data-name="Path 5460" d="M81.516,76.912a.013.013,0,0,1-.01-.005.013.013,0,0,1,0-.018h0s.026-.03-.007-.114a14.248,14.248,0,0,0-3.571-2.62c-2.229-1.324-3.9-2-4.057-1.809a.013.013,0,0,1-.021-.014l.055-.1a.013.013,0,0,1,.007-.008c.27-.175,2.129.658,4.066,1.822,1.745,1.054,3.555,2.316,3.637,2.689a.088.088,0,0,1-.01.071l-.055.086,0,0-.025.02h0l-.007,0M73.982,72.29a14.03,14.03,0,0,1,3.96,1.843,13.9,13.9,0,0,1,3.582,2.634.233.233,0,0,1,.019.085l.041-.065a.063.063,0,0,0,.006-.051c-.08-.362-1.928-1.647-3.625-2.672-1.893-1.137-3.774-1.987-4.037-1.823L73.9,72.3a.269.269,0,0,1,.086-.012m7.942,4.028-.007,0a.013.013,0,0,1,0-.017l.007-.011a.08.08,0,0,0,0-.04v-.016c.011-.5-2.848-2.32-3.657-2.789a13.806,13.806,0,0,0-3.889-1.788H74.37a.255.255,0,0,0-.16.04.042.042,0,0,0-.012.014.015.015,0,0,1-.016.008.015.015,0,0,1-.009-.015.013.013,0,0,1,0-.005l.064-.116,0,0c.346-.26,2.4.8,4.062,1.743,1.929,1.137,3.882,2.533,3.7,2.883h0l-.064.1-.008.012a.013.013,0,0,1-.01.005m-7.546-4.689a13.793,13.793,0,0,1,3.9,1.791c.573.332,3.682,2.261,3.67,2.811v.011l.034-.052c.145-.291-1.477-1.542-3.695-2.849-2.334-1.318-3.765-1.937-4.031-1.746l-.031.057a.346.346,0,0,1,.142-.023Z" transform="translate(-69.003 -65.099)"/>
      <path id="Path_5461" data-name="Path 5461" d="M90.5,69.625a2.613,2.613,0,0,0,.781,1.861,2.653,2.653,0,0,0,4.534-1.859h0V66.1L90.5,66.09Z" transform="translate(-84.153 -60.142)" fill="#fff" fill-rule="evenodd"/>
      <path id="Path_5462" data-name="Path 5462" d="M93,72.135a2.662,2.662,0,0,1-1.882-.788,2.623,2.623,0,0,1-.786-1.872v-3.55h.015l5.331.006v3.546a2.63,2.63,0,0,1-.785,1.878,2.667,2.667,0,0,1-1.891.78m-2.639-6.181v3.52a2.593,2.593,0,0,0,.777,1.851,2.632,2.632,0,0,0,3.731.009,2.6,2.6,0,0,0,.777-1.857V65.96Z" transform="translate(-84.002 -59.991)"/>
      <path id="Path_5463" data-name="Path 5463" d="M95.683,68.422V70.6l0,.231a1.677,1.677,0,0,1-.011.189,1.48,1.48,0,0,1-.436.879,1.525,1.525,0,0,1-1.077.443,1.536,1.536,0,0,1-1.516-1.518V68.416l3.042.006m-4.075,2.4v0a2.509,2.509,0,0,0,.751,1.784,2.552,2.552,0,0,0,3.6,0,2.508,2.508,0,0,0,.748-1.786V67.4h-5.1l0,3.423" transform="translate(-85.163 -61.33)" fill="#e00c10" fill-rule="evenodd"/>
      <path id="Path_5464" data-name="Path 5464" d="M94.045,73.247a2.555,2.555,0,0,1-1.808-.749,2.51,2.51,0,0,1-.754-1.792l.023,0v0a2.488,2.488,0,0,0,.747,1.776,2.541,2.541,0,0,0,3.585,0,2.488,2.488,0,0,0,.744-1.778V67.294H91.508l0,3.411h-.023l0-3.434H96.6v3.437a2.511,2.511,0,0,1-.751,1.794,2.552,2.552,0,0,1-1.808.745m0-1.006a1.547,1.547,0,0,1-1.527-1.53V68.29h.011l3.045.005.034.023h-.026v2.169l0,.231a1.693,1.693,0,0,1-.011.19,1.49,1.49,0,0,1-.44.886,1.531,1.531,0,0,1-1.085.447m-1.5-3.927v2.4a1.508,1.508,0,0,0,2.573,1.067,1.468,1.468,0,0,0,.433-.872,1.668,1.668,0,0,0,.011-.187l0-.231V68.318Z" transform="translate(-85.049 -61.216)"/>
      <path id="Path_5465" data-name="Path 5465" d="M93.581,68.946h-.01l-.032-.275h.01a.032.032,0,0,0,0-.063h.016a.032.032,0,0,0,0-.063h-.035l-.006-.156h.011a.023.023,0,0,0,.024-.023v-.09H93.5v.04h-.039v-.039H93.41v.04h-.039v-.039h-.054v.089a.025.025,0,0,0,.025.023h.009l-.005.156H93.3l-.013-.3H93.3a.023.023,0,0,0,.024-.023v-.09h-.055v.04h-.039v-.04h-.055v.04h-.039v-.039h-.054v.089a.025.025,0,0,0,.025.024h.012l-.013.3h-.049l-.006-.156h.01a.023.023,0,0,0,.024-.023v-.09H93.03v.04H92.99v-.039h-.055v.04H92.9v-.039h-.054v.089a.025.025,0,0,0,.025.023h.009l-.005.156h-.033a.032.032,0,0,0,0,.063h.015a.032.032,0,0,0,0,.063h.011l-.03.275h-.012a.036.036,0,0,0,0,.07h.759a.036.036,0,0,0,0-.07" transform="translate(-86.242 -62.002)" fill="#fcf800" fill-rule="evenodd"/>
      <path id="Path_5466" data-name="Path 5466" d="M93.468,68.823l-.031-.253a.04.04,0,0,0,.037-.042.045.045,0,0,0-.007-.024.042.042,0,0,0,.025-.039.041.041,0,0,0-.039-.043h-.024l-.006-.134h0a.034.034,0,0,0,.035-.034v-.1H93.38v.04h-.017v-.04h-.077v.04h-.017v-.039h-.076v.1a.036.036,0,0,0,.035.034l-.006.134H93.2l-.012-.274h0a.035.035,0,0,0,.036-.034v-.1h-.079v.04h-.018v-.04h-.079v.04h-.018v-.039h-.077v.1a.036.036,0,0,0,.037.035h0l-.012.274h-.028l-.006-.133a.034.034,0,0,0,.035-.034v-.1h-.077v.04h-.017v-.04h-.077v.04h-.017v-.039h-.076v.1a.035.035,0,0,0,.033.034l0,.134h-.022a.041.041,0,0,0-.039.043.043.043,0,0,0,.024.039.044.044,0,0,0-.007.024.04.04,0,0,0,.036.042l-.028.253h0a.047.047,0,0,0,0,.092h.759a.047.047,0,0,0,0-.092m-.022,0h-.162a.3.3,0,0,0-.093-.214.266.266,0,0,0-.054-.039h.28Zm-.359-.19a.2.2,0,0,0-.112.191h-.056a.238.238,0,0,1,.169-.251.261.261,0,0,1,.173.251H93.2a.2.2,0,0,0-.116-.191m.094.189H93a.109.109,0,1,1,.185,0m.034-.569v-.078h.031v.039h.062v-.04h.033v.04H93.4v-.04h.033v.079a.012.012,0,0,1-.013.012H93.23a.014.014,0,0,1-.014-.012m.191.168h-.161l0-.133H93.4Zm-.415-.3a.014.014,0,0,1-.014-.012v-.077h.033v.039h.062v-.04h.034v.04h.063v-.04H93.2v.079a.012.012,0,0,1-.013.012Zm.182.3H93l.012-.273h.146Zm-.432-.167v-.078h.031v.039h.062v-.04h.032v.04h.062v-.04h.033v.079a.012.012,0,0,1-.013.012h-.193a.014.014,0,0,1-.014-.012m.191.168H92.77l0-.133h.152Zm-.223.043a.019.019,0,0,1,.017-.02h.727a.021.021,0,0,1,0,.041h-.727a.019.019,0,0,1-.017-.02m.017.063c0-.011.007-.02.015-.02h.7a.019.019,0,0,1,.015.02c0,.011-.007.02-.015.02h-.7c-.008,0-.015-.009-.015-.02m.036.043h.274a.237.237,0,0,0-.038.024.288.288,0,0,0-.1.228h-.162Zm.706.323h-.759c-.01,0-.018-.011-.018-.024s.008-.024.018-.024h.759c.01,0,.018.011.018.024s-.008.024-.018.024" transform="translate(-86.129 -61.891)" fill-rule="evenodd"/>
      <path id="Path_5467" data-name="Path 5467" d="M97.159,70.344v-.069a.019.019,0,1,0-.039,0v.069Z" transform="translate(-90.18 -63.932)" fill-rule="evenodd"/>
      <path id="Path_5468" data-name="Path 5468" d="M99.761,71.387v.053H99.8v-.053a.019.019,0,1,0-.037,0" transform="translate(-92.583 -64.943)" fill-rule="evenodd"/>
      <path id="Path_5469" data-name="Path 5469" d="M94.469,71.387v.053h.037v-.053a.019.019,0,1,0-.037,0" transform="translate(-87.767 -64.943)" fill-rule="evenodd"/>
      <path id="Path_5470" data-name="Path 5470" d="M93.581,91.9h-.01l-.032-.275h.01a.032.032,0,0,0,0-.063h.016a.032.032,0,0,0,0-.063h-.035l-.006-.156h.011a.023.023,0,0,0,.024-.023v-.09H93.5v.04h-.039v-.039H93.41v.04h-.039v-.039h-.054v.089a.025.025,0,0,0,.025.023h.009l-.005.156H93.3l-.013-.3H93.3a.023.023,0,0,0,.024-.023v-.09h-.055v.04h-.039v-.04h-.055v.04h-.039v-.039h-.054v.089a.025.025,0,0,0,.025.024h.012l-.013.3h-.049l-.006-.156h.01a.023.023,0,0,0,.024-.023v-.09H93.03v.04H92.99v-.039h-.055v.04H92.9v-.039h-.054v.089a.025.025,0,0,0,.025.023h.009l-.005.156h-.033a.032.032,0,0,0,0,.063h.015a.032.032,0,0,0,0,.063h.011l-.03.275h-.012a.036.036,0,0,0,0,.07h.759a.036.036,0,0,0,0-.07" transform="translate(-86.242 -82.886)" fill="#fcf800" fill-rule="evenodd"/>
      <path id="Path_5471" data-name="Path 5471" d="M93.468,91.772l-.031-.253a.041.041,0,0,0,.037-.042.045.045,0,0,0-.007-.024.042.042,0,0,0,.025-.039.041.041,0,0,0-.039-.043h-.024l-.006-.134h0a.034.034,0,0,0,.035-.034v-.1H93.38v.04h-.017V91.1h-.077v.04h-.017V91.1h-.076v.1a.036.036,0,0,0,.035.034l-.006.134H93.2l-.012-.274h0a.035.035,0,0,0,.036-.034v-.1h-.079V91h-.018v-.04h-.079V91h-.018v-.039h-.077v.1a.036.036,0,0,0,.037.035h0l-.012.274h-.028l-.006-.133a.034.034,0,0,0,.035-.034v-.1h-.077v.04h-.017V91.1h-.077v.04h-.017V91.1h-.076v.1a.035.035,0,0,0,.033.034l0,.134h-.022a.041.041,0,0,0-.039.043.043.043,0,0,0,.024.039.044.044,0,0,0-.007.024.04.04,0,0,0,.036.042l-.028.253h0a.047.047,0,0,0,0,.092h.759a.047.047,0,0,0,0-.092m-.022,0h-.162a.3.3,0,0,0-.093-.214.266.266,0,0,0-.054-.039h.28Zm-.359-.19a.2.2,0,0,0-.112.191h-.056a.238.238,0,0,1,.169-.251.261.261,0,0,1,.173.251H93.2a.2.2,0,0,0-.116-.191m.094.189H93a.109.109,0,1,1,.185,0m.034-.569v-.078h.031v.039h.062v-.04h.033v.04H93.4v-.04h.033V91.2a.012.012,0,0,1-.013.012H93.23a.014.014,0,0,1-.014-.012m.191.168h-.161l0-.133H93.4Zm-.415-.3a.014.014,0,0,1-.014-.012v-.077h.033v.039h.062v-.04h.034v.04h.063v-.04H93.2v.079a.012.012,0,0,1-.013.012Zm.182.3H93l.012-.273h.146Zm-.432-.167v-.078h.031v.039h.062v-.04h.032v.04h.062v-.04h.033V91.2a.012.012,0,0,1-.013.012h-.193a.014.014,0,0,1-.014-.012m.191.168H92.77l0-.133h.152Zm-.223.043a.019.019,0,0,1,.017-.02h.727a.021.021,0,0,1,0,.041h-.727a.019.019,0,0,1-.017-.02m.017.063c0-.011.007-.02.015-.02h.7a.019.019,0,0,1,.015.02c0,.011-.007.02-.015.02h-.7c-.008,0-.015-.009-.015-.02m.036.043h.274a.238.238,0,0,0-.038.024.288.288,0,0,0-.1.228h-.162Zm.706.323h-.759c-.01,0-.018-.011-.018-.024s.008-.024.018-.024h.759c.01,0,.018.011.018.024s-.008.024-.018.024" transform="translate(-86.129 -82.775)" fill-rule="evenodd"/>
      <path id="Path_5472" data-name="Path 5472" d="M97.159,93.293v-.069a.019.019,0,1,0-.039,0v.069Z" transform="translate(-90.18 -84.815)" fill-rule="evenodd"/>
      <path id="Path_5473" data-name="Path 5473" d="M99.761,94.336v.053H99.8v-.053a.019.019,0,1,0-.037,0" transform="translate(-92.583 -85.827)" fill-rule="evenodd"/>
      <path id="Path_5474" data-name="Path 5474" d="M94.469,94.336v.053h.037v-.053a.019.019,0,1,0-.037,0" transform="translate(-87.767 -85.827)" fill-rule="evenodd"/>
      <path id="Path_5475" data-name="Path 5475" d="M98.487,115.017l-.007.007-.218-.172.007-.007a.032.032,0,0,0-.045-.044l.012-.012a.03.03,0,0,0,0-.042.03.03,0,0,0-.042,0l-.025.024-.115-.106.008-.008a.023.023,0,0,0,0-.033L98,114.558l-.039.039.028.028-.028.028-.028-.028-.039.039.028.028-.028.028-.028-.027-.038.038.063.063a.025.025,0,0,0,.034,0l.006-.006.107.114-.034.034-.22-.2.01-.01a.023.023,0,0,0,0-.033l-.064-.064-.039.039.028.028-.028.028-.028-.028-.039.039.028.028-.028.028-.028-.028-.038.038.063.063a.025.025,0,0,0,.034,0l.009-.009.2.22-.035.034L97.716,115l.007-.007a.023.023,0,0,0,0-.033l-.064-.063-.039.039.028.028-.028.028-.028-.028-.039.039.028.028-.028.028-.028-.027-.038.038.063.062a.025.025,0,0,0,.034,0l.006-.006.107.114-.023.023a.032.032,0,0,0,.045.045l.011-.011a.029.029,0,0,0,0,.041.029.029,0,0,0,.041,0l.008-.008.175.216-.009.009a.036.036,0,0,0,.05.049l.536-.534a.032.032,0,0,0,0-.045.033.033,0,0,0-.045,0" transform="translate(-90.515 -104.248)" fill="#fcf800" fill-rule="evenodd"/>
      <path id="Path_5476" data-name="Path 5476" d="M98.318,114.846l-.2-.157a.04.04,0,0,0,0-.056.044.044,0,0,0-.022-.012.042.042,0,0,0-.01-.045.041.041,0,0,0-.058,0L98,114.59l-.1-.091h0a.034.034,0,0,0,0-.049l-.072-.071-.055.055.028.028-.012.012-.028-.028-.055.054.028.028-.012.012-.027-.027-.054.053.071.071a.036.036,0,0,0,.049,0l.091.1-.019.019-.2-.186,0,0a.035.035,0,0,0,0-.049l-.071-.071-.056.056.028.028-.013.013-.028-.028-.056.055.028.028-.012.012-.027-.027-.055.054.071.07a.036.036,0,0,0,.051,0l0,0,.186.2-.019.019-.1-.09a.034.034,0,0,0,0-.049l-.072-.071-.055.055.028.028-.012.012-.028-.028-.055.054.028.028-.012.012-.028-.028-.054.054.071.07a.036.036,0,0,0,.048,0l.092.1-.016.016a.041.041,0,0,0,0,.058.043.043,0,0,0,.045.011.045.045,0,0,0,.012.022.041.041,0,0,0,.056,0l.16.2h0a.047.047,0,0,0,.065.065l.536-.534a.043.043,0,0,0,0-.061.044.044,0,0,0-.061,0m-.016.015-.115.114a.3.3,0,0,0-.218-.086.269.269,0,0,0-.066.011l.2-.2Zm-.389.119a.2.2,0,0,0,.056.214l-.04.039a.237.237,0,0,1-.058-.3.262.262,0,0,1,.3.055l-.041.041a.2.2,0,0,0-.217-.053m.2.068-.131.13a.185.185,0,0,1-.054-.181.188.188,0,0,1,.185.051m-.38-.427-.055-.055.022-.022.028.027.044-.043-.028-.028.023-.023.028.028.044-.043-.028-.028.023-.023.056.056a.012.012,0,0,1,0,.017l-.137.136a.014.014,0,0,1-.019,0m.254-.015-.114.114-.091-.1.107-.107Zm-.5.083a.014.014,0,0,1-.019,0l-.055-.055.023-.023.028.027.044-.044-.028-.028.024-.024.028.028.044-.044-.028-.028.024-.024.056.056a.012.012,0,0,1,0,.018Zm.338.081-.12.119-.185-.2.1-.1Zm-.424.186-.055-.055.022-.022.028.028.044-.043-.028-.028.023-.023.028.028.044-.044-.028-.028.023-.023.056.056a.012.012,0,0,1,0,.018l-.137.136a.014.014,0,0,1-.019,0m.254-.016-.114.114-.091-.1.108-.107Zm-.127.187a.019.019,0,0,1,0-.026l.514-.512a.019.019,0,0,1,.026,0,.019.019,0,0,1,0,.026l-.514.512a.019.019,0,0,1-.026,0m.057.033a.018.018,0,0,1,0-.025l.492-.49a.021.021,0,0,1,.029.029l-.492.49a.019.019,0,0,1-.025,0m.056,0,.194-.193a.228.228,0,0,0-.01.044.287.287,0,0,0,.09.233l-.115.114Zm.729-.269-.536.535a.025.025,0,0,1-.034-.034l.536-.534a.022.022,0,0,1,.03,0,.022.022,0,0,1,0,.029" transform="translate(-90.354 -104.085)" fill-rule="evenodd"/>
      <path id="Path_5477" data-name="Path 5477" d="M100.718,117.739l-.049-.049a.019.019,0,1,0-.027.027l.049.049Z" transform="translate(-93.377 -107.092)" fill-rule="evenodd"/>
      <path id="Path_5478" data-name="Path 5478" d="M103.3,116.652l.038.037.026-.026-.038-.037a.019.019,0,1,0-.026.026" transform="translate(-95.795 -106.123)" fill-rule="evenodd"/>
      <path id="Path_5479" data-name="Path 5479" d="M99.556,120.379l.038.037.026-.026-.038-.037a.019.019,0,1,0-.026.026" transform="translate(-92.39 -109.515)" fill-rule="evenodd"/>
      <path id="Path_5480" data-name="Path 5480" d="M116.319,68.946h-.01l-.032-.275h.01a.032.032,0,0,0,0-.063h.016a.032.032,0,0,0,0-.063h-.035l-.006-.156h.011a.023.023,0,0,0,.024-.023v-.09h-.055v.04H116.2v-.039h-.055v.04h-.039v-.039h-.054v.089a.025.025,0,0,0,.025.023h.009l-.005.156h-.049l-.013-.3h.014a.023.023,0,0,0,.024-.023v-.09h-.055v.04h-.039v-.04h-.055v.04h-.039v-.039h-.054v.089a.025.025,0,0,0,.025.024h.012l-.013.3h-.049l-.006-.156h.01a.023.023,0,0,0,.024-.023v-.09h-.055v.04h-.039v-.039h-.055v.04h-.039v-.039h-.054v.089a.025.025,0,0,0,.025.023h.009l-.005.156h-.033a.032.032,0,0,0,0,.063h.015a.032.032,0,0,0,0,.063h.011l-.03.275h-.012a.036.036,0,0,0,0,.07h.759a.036.036,0,0,0,0-.07" transform="translate(-106.933 -62.002)" fill="#fcf800" fill-rule="evenodd"/>
      <path id="Path_5481" data-name="Path 5481" d="M116.206,68.823l-.031-.253a.041.041,0,0,0,.037-.042.045.045,0,0,0-.007-.024.042.042,0,0,0,.025-.039.041.041,0,0,0-.039-.043h-.024l-.006-.134h0a.034.034,0,0,0,.035-.034v-.1h-.077v.04H116.1v-.04h-.077v.04h-.017v-.039h-.076v.1a.036.036,0,0,0,.035.034l-.006.134h-.027l-.012-.274h0a.035.035,0,0,0,.036-.034v-.1h-.079v.04h-.018v-.04h-.079v.04h-.018v-.039h-.077v.1a.036.036,0,0,0,.037.035h0l-.012.274h-.028l-.006-.133a.034.034,0,0,0,.035-.034v-.1h-.077v.04h-.017v-.04h-.077v.04h-.017v-.039h-.076v.1a.035.035,0,0,0,.033.034l0,.134h-.022a.041.041,0,0,0-.039.043.043.043,0,0,0,.024.039.045.045,0,0,0-.007.024.04.04,0,0,0,.036.042l-.028.253h0a.047.047,0,0,0,0,.092h.759a.047.047,0,0,0,0-.092m-.022,0h-.162a.3.3,0,0,0-.093-.214.266.266,0,0,0-.054-.039h.28Zm-.359-.19a.2.2,0,0,0-.112.191h-.056a.238.238,0,0,1,.169-.251.261.261,0,0,1,.173.251h-.058a.2.2,0,0,0-.116-.191m.094.189h-.185a.109.109,0,1,1,.185,0m.034-.569v-.078h.031v.039h.062v-.04h.033v.04h.062v-.04h.033v.079a.012.012,0,0,1-.013.012h-.193a.014.014,0,0,1-.014-.012m.191.168h-.161l0-.133h.152Zm-.415-.3a.014.014,0,0,1-.014-.012v-.077h.033v.039h.062v-.04h.034v.04h.063v-.04h.034v.079a.012.012,0,0,1-.013.012Zm.182.3h-.169l.012-.273h.146Zm-.432-.167v-.078h.031v.039h.062v-.04h.032v.04h.062v-.04h.033v.079a.012.012,0,0,1-.013.012h-.193a.014.014,0,0,1-.014-.012m.191.168h-.161l0-.133h.152Zm-.223.043a.019.019,0,0,1,.017-.02h.727a.021.021,0,0,1,0,.041h-.727a.019.019,0,0,1-.017-.02m.017.063c0-.011.007-.02.015-.02h.7a.019.019,0,0,1,.015.02c0,.011-.007.02-.015.02h-.7c-.008,0-.015-.009-.015-.02m.036.043h.274a.237.237,0,0,0-.038.024.288.288,0,0,0-.1.228h-.162Zm.707.323h-.759c-.01,0-.018-.011-.018-.024s.008-.024.018-.024h.759c.01,0,.018.011.018.024s-.008.024-.018.024" transform="translate(-106.82 -61.891)" fill-rule="evenodd"/>
      <path id="Path_5482" data-name="Path 5482" d="M119.9,70.344v-.069a.019.019,0,1,0-.039,0v.069Z" transform="translate(-110.871 -63.932)" fill-rule="evenodd"/>
      <path id="Path_5483" data-name="Path 5483" d="M122.5,71.387v.053h.037v-.053a.019.019,0,1,0-.037,0" transform="translate(-113.274 -64.943)" fill-rule="evenodd"/>
      <path id="Path_5484" data-name="Path 5484" d="M117.206,71.387v.053h.037v-.053a.019.019,0,1,0-.037,0" transform="translate(-108.457 -64.943)" fill-rule="evenodd"/>
      <path id="Path_5485" data-name="Path 5485" d="M138.8,68.946h-.01l-.032-.275h.01a.032.032,0,0,0,0-.063h.016a.032.032,0,0,0,0-.063h-.035l-.006-.156h.011a.023.023,0,0,0,.024-.023v-.09h-.055v.04h-.039v-.039h-.055v.04h-.039v-.039h-.054v.089a.025.025,0,0,0,.025.023h.009l-.005.156h-.049l-.013-.3h.014a.023.023,0,0,0,.024-.023v-.09h-.055v.04h-.039v-.04H138.4v.04h-.039v-.039H138.3v.089a.025.025,0,0,0,.025.024h.012l-.013.3h-.049l-.006-.156h.01a.023.023,0,0,0,.024-.023v-.09h-.055v.04h-.039v-.039h-.055v.04h-.039v-.039h-.054v.089a.025.025,0,0,0,.025.023h.009l-.005.156h-.033a.032.032,0,0,0,0,.063h.015a.032.032,0,0,0,0,.063h.011l-.03.275h-.012a.036.036,0,0,0,0,.07h.759a.036.036,0,0,0,0-.07" transform="translate(-127.395 -62.002)" fill="#fcf800" fill-rule="evenodd"/>
      <path id="Path_5486" data-name="Path 5486" d="M138.691,68.823l-.031-.253a.04.04,0,0,0,.037-.042.045.045,0,0,0-.007-.024.042.042,0,0,0,.025-.039.041.041,0,0,0-.039-.043h-.024l-.006-.134h0a.034.034,0,0,0,.035-.034v-.1H138.6v.04h-.017v-.04h-.077v.04h-.017v-.039h-.076v.1a.036.036,0,0,0,.035.034l-.006.134h-.027l-.012-.274h0a.035.035,0,0,0,.036-.034v-.1h-.079v.04h-.018v-.04h-.079v.04h-.018v-.039h-.077v.1a.036.036,0,0,0,.037.035h0l-.012.274h-.028l-.006-.133a.034.034,0,0,0,.035-.034v-.1h-.077v.04h-.017v-.04h-.077v.04h-.017v-.039h-.076v.1a.035.035,0,0,0,.033.034l0,.134h-.022a.041.041,0,0,0-.039.043.043.043,0,0,0,.024.039.045.045,0,0,0-.007.024.04.04,0,0,0,.036.042l-.028.253h0a.047.047,0,0,0,0,.092h.759a.047.047,0,0,0,0-.092m-.022,0h-.162a.3.3,0,0,0-.093-.214.266.266,0,0,0-.054-.039h.28Zm-.359-.19a.2.2,0,0,0-.112.191h-.056a.238.238,0,0,1,.169-.251.261.261,0,0,1,.173.251h-.058a.2.2,0,0,0-.116-.191m.094.189h-.185a.109.109,0,1,1,.185,0m.034-.569v-.078h.031v.039h.062v-.04h.033v.04h.062v-.04h.033v.079a.012.012,0,0,1-.013.012h-.193a.014.014,0,0,1-.014-.012m.191.168h-.161l0-.133h.152Zm-.415-.3a.014.014,0,0,1-.014-.012v-.077h.033v.039h.062v-.04h.034v.04h.063v-.04h.034v.079a.012.012,0,0,1-.013.012Zm.182.3h-.169l.012-.273h.146Zm-.432-.167v-.078h.031v.039h.062v-.04h.032v.04h.062v-.04h.033v.079a.012.012,0,0,1-.013.012h-.193a.014.014,0,0,1-.014-.012m.191.168h-.161l0-.133h.152Zm-.223.043a.019.019,0,0,1,.017-.02h.727a.021.021,0,0,1,0,.041h-.727a.019.019,0,0,1-.017-.02m.017.063c0-.011.007-.02.015-.02h.7a.019.019,0,0,1,.015.02c0,.011-.007.02-.015.02h-.7c-.008,0-.015-.009-.015-.02m.036.043h.274a.237.237,0,0,0-.038.024.288.288,0,0,0-.1.228h-.162Zm.706.323h-.759c-.01,0-.018-.011-.018-.024s.008-.024.018-.024h.759c.01,0,.018.011.018.024s-.008.024-.018.024" transform="translate(-127.282 -61.891)" fill-rule="evenodd"/>
      <path id="Path_5487" data-name="Path 5487" d="M142.383,70.344v-.069a.019.019,0,1,0-.039,0v.069Z" transform="translate(-131.334 -63.932)" fill-rule="evenodd"/>
      <path id="Path_5488" data-name="Path 5488" d="M144.984,71.387v.053h.037v-.053a.019.019,0,1,0-.037,0" transform="translate(-133.735 -64.943)" fill-rule="evenodd"/>
      <path id="Path_5489" data-name="Path 5489" d="M139.692,71.387v.053h.037v-.053a.019.019,0,1,0-.037,0" transform="translate(-128.92 -64.943)" fill-rule="evenodd"/>
      <path id="Path_5490" data-name="Path 5490" d="M138.8,91.9h-.01l-.032-.275h.01a.032.032,0,0,0,0-.063h.016a.032.032,0,0,0,0-.063h-.035l-.006-.156h.011a.023.023,0,0,0,.024-.023v-.09h-.055v.04h-.039v-.039h-.055v.04h-.039v-.039h-.054v.089a.025.025,0,0,0,.025.023h.009l-.005.156h-.049l-.013-.3h.014a.023.023,0,0,0,.024-.023v-.09h-.055v.04h-.039v-.04H138.4v.04h-.039v-.039H138.3v.089a.025.025,0,0,0,.025.024h.012l-.013.3h-.049l-.006-.156h.01a.023.023,0,0,0,.024-.023v-.09h-.055v.04h-.039v-.039h-.055v.04h-.039v-.039h-.054v.089a.025.025,0,0,0,.025.023h.009l-.005.156h-.033a.032.032,0,0,0,0,.063h.015a.032.032,0,0,0,0,.063h.011l-.03.275h-.012a.036.036,0,0,0,0,.07h.759a.036.036,0,0,0,0-.07" transform="translate(-127.395 -82.888)" fill="#fcf800" fill-rule="evenodd"/>
      <path id="Path_5491" data-name="Path 5491" d="M138.691,91.775l-.031-.253a.041.041,0,0,0,.037-.042.045.045,0,0,0-.007-.024.042.042,0,0,0,.025-.039.041.041,0,0,0-.039-.043h-.024l-.006-.134h0a.034.034,0,0,0,.035-.034v-.1H138.6v.04h-.017V91.1h-.077v.04h-.017v-.039h-.076v.1a.036.036,0,0,0,.035.034l-.006.134h-.027l-.012-.275h0a.035.035,0,0,0,.036-.034v-.1h-.079V91h-.018v-.04h-.079V91h-.018v-.039h-.077v.1a.036.036,0,0,0,.037.035h0l-.012.275h-.028l-.006-.133a.034.034,0,0,0,.035-.034v-.1h-.077v.04h-.017v-.04h-.077v.04h-.017v-.039h-.076v.1a.035.035,0,0,0,.033.034l0,.134h-.022a.041.041,0,0,0-.039.043.043.043,0,0,0,.024.039.045.045,0,0,0-.007.024.04.04,0,0,0,.036.042l-.028.253h0a.047.047,0,0,0,0,.092h.759a.047.047,0,0,0,0-.092m-.022,0h-.162a.3.3,0,0,0-.093-.214.266.266,0,0,0-.054-.039h.28Zm-.359-.19a.2.2,0,0,0-.112.191h-.056a.238.238,0,0,1,.169-.251.261.261,0,0,1,.173.251h-.058a.2.2,0,0,0-.116-.191m.094.189h-.185a.109.109,0,1,1,.185,0m.034-.569v-.078h.031v.039h.062v-.04h.033v.04h.062v-.04h.033v.079a.012.012,0,0,1-.013.012h-.193a.014.014,0,0,1-.014-.012m.191.168h-.161l0-.133h.152Zm-.415-.3a.014.014,0,0,1-.014-.012v-.077h.033v.039h.062v-.04h.034v.04h.063v-.04h.034v.079a.012.012,0,0,1-.013.012Zm.182.3h-.169l.012-.273h.146Zm-.432-.167v-.078h.031v.039h.062v-.04h.032v.04h.062v-.04h.033v.079a.012.012,0,0,1-.013.012h-.193a.014.014,0,0,1-.014-.012m.191.168h-.161l0-.133h.152Zm-.223.043a.019.019,0,0,1,.017-.02h.727a.021.021,0,0,1,0,.041h-.727a.019.019,0,0,1-.017-.02m.017.063c0-.011.007-.02.015-.02h.7a.019.019,0,0,1,.015.02c0,.011-.007.02-.015.02h-.7c-.008,0-.015-.009-.015-.02m.036.043h.274a.237.237,0,0,0-.038.024.288.288,0,0,0-.1.228h-.162Zm.706.323h-.759c-.01,0-.018-.011-.018-.024s.008-.024.018-.024h.759c.01,0,.018.011.018.024s-.008.024-.018.024" transform="translate(-127.282 -82.777)" fill-rule="evenodd"/>
      <path id="Path_5492" data-name="Path 5492" d="M142.383,93.3v-.069a.019.019,0,1,0-.039,0V93.3Z" transform="translate(-131.334 -84.817)" fill-rule="evenodd"/>
      <path id="Path_5493" data-name="Path 5493" d="M144.984,94.339v.053h.037v-.053a.019.019,0,1,0-.037,0" transform="translate(-133.735 -85.83)" fill-rule="evenodd"/>
      <path id="Path_5494" data-name="Path 5494" d="M139.692,94.339v.053h.037v-.053a.019.019,0,1,0-.037,0" transform="translate(-128.92 -85.83)" fill-rule="evenodd"/>
      <path id="Path_5495" data-name="Path 5495" d="M131.385,115.58l-.007-.007.173-.218.007.007a.03.03,0,0,0,.041,0,.029.029,0,0,0,0-.041l.012.012a.032.032,0,0,0,.045-.044l-.025-.025.107-.114.008.008a.023.023,0,0,0,.034,0l.064-.063-.039-.039-.028.028-.028-.028.028-.028-.039-.039-.028.028-.028-.028.028-.027-.038-.038-.063.063a.025.025,0,0,0,0,.034l.006.006-.115.107-.034-.034.2-.219.01.01a.023.023,0,0,0,.033,0l.064-.063-.039-.039-.028.028-.028-.028.028-.028-.039-.039-.028.028-.028-.028.028-.028-.038-.038-.063.063a.025.025,0,0,0,0,.034l.009.009-.22.2-.035-.034.107-.114.007.007a.023.023,0,0,0,.034,0l.064-.063-.039-.039-.028.028-.028-.028.028-.028-.039-.039-.028.028-.028-.028.028-.027-.038-.038-.063.063a.025.025,0,0,0,0,.034l.006.006-.115.107-.023-.023a.03.03,0,0,0-.042,0,.03.03,0,0,0,0,.042l.011.011a.032.032,0,0,0-.045.045l.008.008-.216.174-.009-.009a.033.033,0,0,0-.045,0,.032.032,0,0,0,0,.045l.536.534a.036.036,0,0,0,.05-.049" transform="translate(-120.821 -104.273)" fill="#fcf800" fill-rule="evenodd"/>
      <path id="Path_5496" data-name="Path 5496" d="M131.28,115.412l.158-.2a.041.041,0,0,0,.056,0,.044.044,0,0,0,.012-.022.043.043,0,0,0,.046-.01.041.041,0,0,0,0-.058l-.017-.017.091-.1h0a.035.035,0,0,0,.049,0l.072-.071-.055-.055-.028.028-.012-.012.028-.028-.055-.055-.028.028-.012-.012.027-.027-.054-.054-.071.071a.035.035,0,0,0,0,.049l-.1.091-.019-.019.187-.2,0,0a.035.035,0,0,0,.05,0l.072-.071-.056-.056-.028.028-.013-.013.028-.028-.056-.055-.028.028-.012-.012.027-.027-.055-.055-.071.071a.036.036,0,0,0,0,.05l0,0-.2.185-.019-.019.091-.1a.034.034,0,0,0,.049,0l.072-.071-.055-.055-.028.028-.012-.012.028-.028-.054-.055-.028.028-.012-.012.028-.028-.054-.054-.071.071a.035.035,0,0,0,0,.048l-.1.092-.016-.016a.041.041,0,0,0-.058,0,.043.043,0,0,0-.011.045.045.045,0,0,0-.022.012.04.04,0,0,0,0,.056l-.2.16,0,0a.044.044,0,0,0-.061,0,.043.043,0,0,0,0,.061l.536.534a.047.047,0,0,0,.066-.065m-.015-.016-.115-.114a.3.3,0,0,0,.086-.217.267.267,0,0,0-.011-.066l.2.2Zm-.119-.387a.2.2,0,0,0-.214.056l-.04-.039a.239.239,0,0,1,.3-.058.259.259,0,0,1-.056.3l-.041-.041a.2.2,0,0,0,.053-.217m-.068.2-.13-.13a.109.109,0,1,1,.13.13m.428-.378.055-.055.022.022-.028.027.044.043.028-.028.023.023-.028.028.044.043.028-.028.023.023-.056.056a.012.012,0,0,1-.018,0l-.137-.136a.014.014,0,0,1,0-.018m.016.253-.114-.114.1-.091.107.107Zm-.083-.5a.014.014,0,0,1,0-.019l.055-.055.023.023-.028.027.044.044.028-.028.024.024-.028.028.044.044.028-.028.024.024-.056.055a.012.012,0,0,1-.018,0Zm-.081.337-.119-.12.2-.184.1.1Zm-.187-.422.055-.055.022.022-.028.028.044.043.028-.028.023.023-.028.028.044.044.028-.028.023.023-.056.056a.012.012,0,0,1-.018,0l-.137-.136a.014.014,0,0,1,0-.018m.016.253-.114-.114.1-.091.108.107Zm-.188-.126a.019.019,0,0,1,.026,0l.514.512a.021.021,0,0,1-.029.029l-.514-.512a.019.019,0,0,1,0-.026m-.033.056a.019.019,0,0,1,.025,0l.492.49a.018.018,0,0,1,0,.025.019.019,0,0,1-.025,0l-.492-.49a.019.019,0,0,1,0-.025m0,.056.194.193a.236.236,0,0,0-.044-.01.29.29,0,0,0-.234.09l-.114-.114Zm.27.726-.536-.534a.022.022,0,0,1,0-.029.022.022,0,0,1,.03,0l.536.534a.025.025,0,0,1-.034.034" transform="translate(-120.708 -104.113)" fill-rule="evenodd"/>
      <path id="Path_5497" data-name="Path 5497" d="M138.473,117.8l.049-.049a.019.019,0,1,0-.027-.027l-.049.049Z" transform="translate(-127.786 -107.124)" fill-rule="evenodd"/>
      <path id="Path_5498" data-name="Path 5498" d="M139.689,120.373l-.038.037.026.026.038-.037a.019.019,0,1,0-.026-.026" transform="translate(-128.882 -109.533)" fill-rule="evenodd"/>
      <path id="Path_5499" data-name="Path 5499" d="M135.946,116.645l-.038.037.026.026.038-.038a.019.019,0,1,0-.026-.026" transform="translate(-125.476 -106.14)" fill-rule="evenodd"/>
      <path id="Path_5500" data-name="Path 5500" d="M116.3,108.548v.48h0a.372.372,0,0,0,.1.254.32.32,0,0,0,.475,0,.371.371,0,0,0,.1-.254v-.48Zm.15.614a.066.066,0,1,1,.066-.066.066.066,0,0,1-.066.066m0-.365a.066.066,0,1,1,.066-.066.066.066,0,0,1-.066.066m.183.179a.066.066,0,1,1,.067-.066.067.067,0,0,1-.067.066m.186.186a.066.066,0,1,1,.067-.066.066.066,0,0,1-.067.066m0-.364a.066.066,0,1,1,.067-.066.067.067,0,0,1-.067.066" transform="translate(-107.628 -98.779)" fill="#003494"/>
      <path id="Path_5501" data-name="Path 5501" d="M126.707,95.793v.48h0a.372.372,0,0,0,.1.254.32.32,0,0,0,.475,0,.371.371,0,0,0,.1-.254v-.48Zm.15.614a.066.066,0,1,1,.066-.066.066.066,0,0,1-.066.066m0-.365a.066.066,0,1,1,.066-.066.066.066,0,0,1-.066.066m.183.179a.066.066,0,1,1,.067-.066.067.067,0,0,1-.067.066m.186.186a.066.066,0,1,1,.067-.066.066.066,0,0,1-.067.066m0-.364a.066.066,0,1,1,.067-.066.067.067,0,0,1-.067.066" transform="translate(-117.102 -87.172)" fill="#003494"/>
      <path id="Path_5502" data-name="Path 5502" d="M116.3,95.793v.48h0a.372.372,0,0,0,.1.254.32.32,0,0,0,.475,0,.371.371,0,0,0,.1-.254v-.48Zm.15.614a.066.066,0,1,1,.066-.066.066.066,0,0,1-.066.066m0-.365a.066.066,0,1,1,.066-.066.066.066,0,0,1-.066.066m.183.179a.066.066,0,1,1,.067-.066.067.067,0,0,1-.067.066m.186.186a.066.066,0,1,1,.067-.066.066.066,0,0,1-.067.066m0-.364a.066.066,0,1,1,.067-.066.067.067,0,0,1-.067.066" transform="translate(-107.628 -87.172)" fill="#003494"/>
      <path id="Path_5503" data-name="Path 5503" d="M106.043,95.793v.48h0a.372.372,0,0,0,.1.254.32.32,0,0,0,.475,0,.371.371,0,0,0,.1-.254v-.48Zm.15.614a.066.066,0,1,1,.066-.066.066.066,0,0,1-.066.066m0-.365a.066.066,0,1,1,.066-.066.066.066,0,0,1-.066.066m.183.179a.066.066,0,1,1,.067-.066.067.067,0,0,1-.067.066m.186.186a.066.066,0,1,1,.067-.066.066.066,0,0,1-.067.066m0-.364a.066.066,0,1,1,.067-.066.067.067,0,0,1-.067.066" transform="translate(-98.298 -87.172)" fill="#003494"/>
      <path id="Path_5504" data-name="Path 5504" d="M116.3,82.883v.48h0a.372.372,0,0,0,.1.254.32.32,0,0,0,.475,0,.371.371,0,0,0,.1-.254v-.48Zm.15.614a.066.066,0,1,1,.066-.066.066.066,0,0,1-.066.066m0-.365a.066.066,0,1,1,.066-.066.066.066,0,0,1-.066.066m.183.179a.066.066,0,1,1,.067-.066.067.067,0,0,1-.067.066m.186.186a.066.066,0,1,1,.067-.066.066.066,0,0,1-.067.066m0-.364a.066.066,0,1,1,.067-.066.067.067,0,0,1-.067.066" transform="translate(-107.628 -75.424)" fill="#003494"/>
    </g>
  </g>
</svg>
