<svg xmlns="http://www.w3.org/2000/svg" xmlns:xlink="http://www.w3.org/1999/xlink" width="18" height="18" viewBox="0 0 18 18">
  <defs>
    <clipPath id="clip-path">
      <circle id="Ellipse_823" data-name="Ellipse 823" cx="9" cy="9" r="9" transform="translate(0.077 0.081)" fill="none"/>
    </clipPath>
  </defs>
  <g id="English" transform="translate(5301 -1625)">
    <g id="en" transform="translate(-5301.077 1624.919)" clip-path="url(#clip-path)">
      <rect id="Rectangle_6668" data-name="Rectangle 6668" width="34.372" height="1.392" transform="translate(-4.67 0.034)" fill="#fe0000"/>
      <rect id="Rectangle_6669" data-name="Rectangle 6669" width="34.372" height="1.392" transform="translate(-4.67 16.733)" fill="#fe0000"/>
      <rect id="Rectangle_6670" data-name="Rectangle 6670" width="34.372" height="1.392" transform="translate(-4.67 13.95)" fill="#fe0000"/>
      <rect id="Rectangle_6671" data-name="Rectangle 6671" width="34.372" height="1.392" transform="translate(-4.67 11.167)" fill="#fe0000"/>
      <rect id="Rectangle_6672" data-name="Rectangle 6672" width="34.372" height="1.392" transform="translate(-4.67 8.384)" fill="#fe0000"/>
      <rect id="Rectangle_6673" data-name="Rectangle 6673" width="34.372" height="1.392" transform="translate(-4.67 5.6)" fill="#fe0000"/>
      <rect id="Rectangle_6674" data-name="Rectangle 6674" width="34.372" height="1.392" transform="translate(-4.67 2.817)" fill="#fe0000"/>
      <rect id="Rectangle_6675" data-name="Rectangle 6675" width="34.372" height="1.392" transform="translate(-4.67 15.341)" fill="#fff"/>
      <rect id="Rectangle_6676" data-name="Rectangle 6676" width="34.372" height="1.392" transform="translate(-4.67 12.558)" fill="#fff"/>
      <rect id="Rectangle_6677" data-name="Rectangle 6677" width="34.372" height="1.392" transform="translate(-4.67 9.775)" fill="#fff"/>
      <rect id="Rectangle_6678" data-name="Rectangle 6678" width="34.372" height="1.392" transform="translate(-4.67 6.992)" fill="#fff"/>
      <rect id="Rectangle_6679" data-name="Rectangle 6679" width="34.372" height="1.392" transform="translate(-4.67 4.209)" fill="#fff"/>
      <rect id="Rectangle_6680" data-name="Rectangle 6680" width="34.372" height="1.392" transform="translate(-4.67 1.426)" fill="#fff"/>
      <rect id="Rectangle_6681" data-name="Rectangle 6681" width="13.749" height="9.741" transform="translate(-4.67 0.034)" fill="#0708f6"/>
      <path id="Path_5357" data-name="Path 5357" d="M58,4.609l-.125.385h-.4l.328.238-.125.385L58,5.379l.328.238-.125-.385.328-.238h-.4Z" transform="translate(-56.945 -4.158)" fill="#fff"/>
      <path id="Path_5358" data-name="Path 5358" d="M83.337,4.609l-.125.385h-.4l.328.238-.125.385.328-.238.328.238-.125-.385.328-.238h-.4Z" transform="translate(-79.987 -4.158)" fill="#fff"/>
      <path id="Path_5359" data-name="Path 5359" d="M108.671,4.609l-.125.385h-.4l.328.238-.125.385.328-.238.328.238-.125-.385.328-.238h-.4Z" transform="translate(-103.029 -4.158)" fill="#fff"/>
      <path id="Path_5360" data-name="Path 5360" d="M133.677,5.617,134,5.379l.328.238-.125-.385.328-.238h-.4L134,4.609l-.125.385h-.4l.328.238Z" transform="translate(-126.071 -4.158)" fill="#fff"/>
      <path id="Path_5361" data-name="Path 5361" d="M58,26.148l-.125.385h-.4l.328.238-.125.385L58,26.918l.328.238-.125-.385.328-.238h-.4Z" transform="translate(-56.945 -23.748)" fill="#fff"/>
      <path id="Path_5362" data-name="Path 5362" d="M83.337,26.148l-.125.385h-.4l.328.238-.125.385.328-.238.328.238-.125-.385.328-.238h-.4Z" transform="translate(-79.987 -23.748)" fill="#fff"/>
      <path id="Path_5363" data-name="Path 5363" d="M108.671,26.148l-.125.385h-.4l.328.238-.125.385.328-.238.328.238-.125-.385.328-.238h-.4Z" transform="translate(-103.029 -23.748)" fill="#fff"/>
      <path id="Path_5364" data-name="Path 5364" d="M134,26.148l-.125.385h-.4l.328.238-.125.385.328-.238.328.238-.125-.385.328-.238h-.4Z" transform="translate(-126.071 -23.748)" fill="#fff"/>
      <path id="Path_5365" data-name="Path 5365" d="M58,47.686l-.125.385h-.4l.328.238-.125.385L58,48.456l.328.238-.125-.385.328-.238h-.4Z" transform="translate(-56.945 -43.339)" fill="#fff"/>
      <path id="Path_5366" data-name="Path 5366" d="M83.337,47.686l-.125.385h-.4l.328.238-.125.385.328-.238.328.238-.125-.385.328-.238h-.4Z" transform="translate(-79.987 -43.339)" fill="#fff"/>
      <path id="Path_5367" data-name="Path 5367" d="M108.671,47.686l-.125.385h-.4l.328.238-.125.385.328-.238.328.238-.125-.385.328-.238h-.4Z" transform="translate(-103.029 -43.339)" fill="#fff"/>
      <path id="Path_5368" data-name="Path 5368" d="M134,47.686l-.125.385h-.4l.328.238-.125.385.328-.238.328.238-.125-.385.328-.238h-.4Z" transform="translate(-126.071 -43.339)" fill="#fff"/>
      <path id="Path_5369" data-name="Path 5369" d="M58,69.225l-.125.385h-.4l.328.238-.125.385L58,69.995l.328.238-.125-.385.328-.238h-.4Z" transform="translate(-56.945 -62.929)" fill="#fff"/>
      <path id="Path_5370" data-name="Path 5370" d="M83.337,69.225l-.125.385h-.4l.328.238-.125.385.328-.238.328.238-.125-.385.328-.238h-.4Z" transform="translate(-79.987 -62.929)" fill="#fff"/>
      <path id="Path_5371" data-name="Path 5371" d="M108.671,69.225l-.125.385h-.4l.328.238-.125.385.328-.238.328.238-.125-.385.328-.238h-.4Z" transform="translate(-103.029 -62.929)" fill="#fff"/>
      <path id="Path_5372" data-name="Path 5372" d="M134,69.225l-.125.385h-.4l.328.238-.125.385.328-.238.328.238-.125-.385.328-.238h-.4Z" transform="translate(-126.071 -62.929)" fill="#fff"/>
      <path id="Path_5373" data-name="Path 5373" d="M58.129,91.148,58,90.763l-.125.385h-.4l.328.238-.125.385L58,91.533l.328.238-.125-.385.328-.238Z" transform="translate(-56.945 -82.519)" fill="#fff"/>
      <path id="Path_5374" data-name="Path 5374" d="M83.463,91.148l-.125-.385-.125.385h-.4l.328.238-.125.385.328-.238.328.238-.125-.385.328-.238Z" transform="translate(-79.987 -82.519)" fill="#fff"/>
      <path id="Path_5375" data-name="Path 5375" d="M108.8,91.148l-.125-.385-.125.385h-.4l.328.238-.125.385.328-.238.328.238-.125-.385.328-.238Z" transform="translate(-103.029 -82.519)" fill="#fff"/>
      <path id="Path_5376" data-name="Path 5376" d="M134.129,91.148,134,90.763l-.125.385h-.4l.328.238-.125.385.328-.238.328.238-.125-.385.328-.238Z" transform="translate(-126.071 -82.519)" fill="#fff"/>
      <path id="Path_5377" data-name="Path 5377" d="M45.337,15.378l-.125.385h-.4l.328.238-.125.385.328-.238.328.238L45.54,16l.328-.238h-.4Z" transform="translate(-45.424 -13.953)" fill="#fff"/>
      <path id="Path_5378" data-name="Path 5378" d="M70.671,15.378l-.125.385h-.4l.328.238-.125.385.328-.238.328.238L70.873,16l.328-.238h-.4Z" transform="translate(-68.466 -13.953)" fill="#fff"/>
      <path id="Path_5379" data-name="Path 5379" d="M96,15.378l-.125.385h-.4L95.8,16l-.125.385L96,16.149l.328.238L96.206,16l.328-.238h-.4Z" transform="translate(-91.508 -13.953)" fill="#fff"/>
      <path id="Path_5380" data-name="Path 5380" d="M121.337,15.378l-.125.385h-.4l.328.238-.125.385.328-.238.328.238L121.54,16l.328-.238h-.4Z" transform="translate(-114.55 -13.953)" fill="#fff"/>
      <path id="Path_5381" data-name="Path 5381" d="M45.337,36.917l-.125.385h-.4l.328.238-.125.385.328-.238.328.238-.125-.385.328-.238h-.4Z" transform="translate(-45.424 -33.544)" fill="#fff"/>
      <path id="Path_5382" data-name="Path 5382" d="M70.671,36.917l-.125.385h-.4l.328.238-.125.385.328-.238.328.238-.125-.385L71.2,37.3h-.4Z" transform="translate(-68.466 -33.544)" fill="#fff"/>
      <path id="Path_5383" data-name="Path 5383" d="M96,36.917l-.125.385h-.4l.328.238-.125.385L96,37.687l.328.238-.125-.385.328-.238h-.4Z" transform="translate(-91.508 -33.544)" fill="#fff"/>
      <path id="Path_5384" data-name="Path 5384" d="M121.337,36.917l-.125.385h-.4l.328.238-.125.385.328-.238.328.238-.125-.385.328-.238h-.4Z" transform="translate(-114.55 -33.544)" fill="#fff"/>
      <path id="Path_5385" data-name="Path 5385" d="M45.337,58.455l-.125.385h-.4l.328.238-.125.385.328-.238.328.238-.125-.385.328-.238h-.4Z" transform="translate(-45.424 -53.134)" fill="#fff"/>
      <path id="Path_5386" data-name="Path 5386" d="M70.671,58.455l-.125.385h-.4l.328.238-.125.385.328-.238.328.238-.125-.385.328-.238h-.4Z" transform="translate(-68.466 -53.134)" fill="#fff"/>
      <path id="Path_5387" data-name="Path 5387" d="M96,58.455l-.125.385h-.4l.328.238-.125.385L96,59.226l.328.238-.125-.385.328-.238h-.4Z" transform="translate(-91.508 -53.134)" fill="#fff"/>
      <path id="Path_5388" data-name="Path 5388" d="M121.337,58.455l-.125.385h-.4l.328.238-.125.385.328-.238.328.238-.125-.385.328-.238h-.4Z" transform="translate(-114.55 -53.134)" fill="#fff"/>
      <path id="Path_5389" data-name="Path 5389" d="M45.463,80.379l-.125-.385-.125.385h-.4l.328.238L45.01,81l.328-.238.328.238-.125-.385.328-.238Z" transform="translate(-45.425 -72.724)" fill="#fff"/>
      <path id="Path_5390" data-name="Path 5390" d="M70.8,80.379l-.125-.385-.125.385h-.4l.328.238L70.343,81l.328-.238L71,81l-.125-.385.328-.238Z" transform="translate(-68.466 -72.724)" fill="#fff"/>
      <path id="Path_5391" data-name="Path 5391" d="M96.129,80.379,96,79.994l-.125.385h-.4l.328.238L95.677,81,96,80.764l.328.238-.125-.385.328-.238Z" transform="translate(-91.508 -72.724)" fill="#fff"/>
      <path id="Path_5392" data-name="Path 5392" d="M121.463,80.379l-.125-.385-.125.385h-.4l.328.238L121.01,81l.328-.238.328.238-.125-.385.328-.238Z" transform="translate(-114.55 -72.724)" fill="#fff"/>
    </g>
  </g>
</svg>
