<svg width="24" height="24" viewBox="0 0 24 24" fill="none" xmlns="http://www.w3.org/2000/svg">
<g clip-path="url(#clip0_3757_560)">
<rect width="24" height="24" rx="6" fill="url(#paint0_linear_3757_560)"/>
<g filter="url(#filter0_d_3757_560)">
<path d="M21 12.0557C21 7.05301 16.9686 3 12 3C7.02806 3 3 7.05301 3 12.0557C3 16.5746 6.29006 20.3214 10.5938 21V14.674H8.30831V12.0563H10.5938V10.0601C10.5938 7.79106 11.9353 6.53797 13.9918 6.53797C14.9768 6.53797 16.0078 6.71456 16.0078 6.71456V8.94284H14.871C13.755 8.94284 13.4062 9.64183 13.4062 10.3578V12.0557H15.9021L15.501 14.6734H13.4062V20.9994C17.7066 20.3208 21 16.574 21 12.0552V12.0557Z" fill="url(#paint1_linear_3757_560)"/>
</g>
</g>
<defs>
<filter id="filter0_d_3757_560" x="-2" y="1" width="28" height="28" filterUnits="userSpaceOnUse" color-interpolation-filters="sRGB">
<feFlood flood-opacity="0" result="BackgroundImageFix"/>
<feColorMatrix in="SourceAlpha" type="matrix" values="0 0 0 0 0 0 0 0 0 0 0 0 0 0 0 0 0 0 127 0" result="hardAlpha"/>
<feOffset dy="3"/>
<feGaussianBlur stdDeviation="2.5"/>
<feComposite in2="hardAlpha" operator="out"/>
<feColorMatrix type="matrix" values="0 0 0 0 0 0 0 0 0 0 0 0 0 0 0 0 0 0 0.25 0"/>
<feBlend mode="normal" in2="BackgroundImageFix" result="effect1_dropShadow_3757_560"/>
<feBlend mode="normal" in="SourceGraphic" in2="effect1_dropShadow_3757_560" result="shape"/>
</filter>
<linearGradient id="paint0_linear_3757_560" x1="11" y1="24" x2="11" y2="-4" gradientUnits="userSpaceOnUse">
<stop stop-color="#8642FF"/>
<stop offset="1" stop-color="#B398FF"/>
</linearGradient>
<linearGradient id="paint1_linear_3757_560" x1="12.2626" y1="20.9996" x2="12.2626" y2="3.74998" gradientUnits="userSpaceOnUse">
<stop stop-color="#F4EEFF"/>
<stop offset="0.279507" stop-color="#E2D1FF"/>
<stop offset="0.777164" stop-color="#F4EEFF"/>
</linearGradient>
<clipPath id="clip0_3757_560">
<rect width="24" height="24" rx="6" fill="white"/>
</clipPath>
</defs>
</svg>
