<svg id="fre" xmlns="http://www.w3.org/2000/svg" width="18" height="18.003" viewBox="0 0 18 18.003">
  <path id="Path_5240" data-name="Path 5240" d="M445.8,131h0a8.989,8.989,0,0,1-3-.513V113.513a8.988,8.988,0,0,1,3-.513h0a8.988,8.988,0,0,1,3,.513v16.978A8.988,8.988,0,0,1,445.8,131Z" transform="translate(-436.802 -113)" fill="#fff"/>
  <path id="Path_5241" data-name="Path 5241" d="M640.8,137.889h0a9,9,0,0,1-6,8.489V129.4A9,9,0,0,1,640.8,137.889Z" transform="translate(-622.801 -128.887)" fill="#ed2939"/>
  <path id="Path_5242" data-name="Path 5242" d="M250.9,137.889a9,9,0,0,1,6-8.489v16.978a9,9,0,0,1-6-8.489Z" transform="translate(-250.9 -128.887)" fill="#002395"/>
</svg>
