<svg width="24" height="24" viewBox="0 0 24 24" fill="none" xmlns="http://www.w3.org/2000/svg">
<g clip-path="url(#clip0_3757_566)">
<rect width="24" height="24" rx="6" fill="url(#paint0_linear_3757_566)"/>
<g filter="url(#filter0_d_3757_566)">
<circle cx="12" cy="12" r="9" fill="url(#paint1_linear_3757_566)"/>
</g>
<path d="M9.38406 17.0387V10.2653H7.13313V17.0387H9.38406ZM8.25906 9.34C9.04375 9.34 9.53219 8.82062 9.53219 8.17C9.51812 7.50531 9.04469 7 8.27406 7C7.50344 7 7 7.50625 7 8.17C7 8.82062 7.48844 9.34 8.24406 9.34H8.25906ZM12.8603 17.0387V13.2559C12.8603 13.0534 12.8753 12.8509 12.9353 12.7066C13.0975 12.3025 13.4678 11.8834 14.0903 11.8834C14.905 11.8834 15.2303 12.5041 15.2303 13.4153V17.0387H17.4812V13.1537C17.4812 11.0725 16.3713 10.105 14.89 10.105C13.6956 10.105 13.1603 10.7612 12.8603 11.2234V11.2469H12.8453C12.8503 11.239 12.8553 11.2312 12.8603 11.2234V10.2653H10.6103C10.6384 10.9009 10.6103 17.0387 10.6103 17.0387H12.8603Z" fill="#7F57CF"/>
</g>
<defs>
<filter id="filter0_d_3757_566" x="-2" y="1" width="28" height="28" filterUnits="userSpaceOnUse" color-interpolation-filters="sRGB">
<feFlood flood-opacity="0" result="BackgroundImageFix"/>
<feColorMatrix in="SourceAlpha" type="matrix" values="0 0 0 0 0 0 0 0 0 0 0 0 0 0 0 0 0 0 127 0" result="hardAlpha"/>
<feOffset dy="3"/>
<feGaussianBlur stdDeviation="2.5"/>
<feComposite in2="hardAlpha" operator="out"/>
<feColorMatrix type="matrix" values="0 0 0 0 0 0 0 0 0 0 0 0 0 0 0 0 0 0 0.25 0"/>
<feBlend mode="normal" in2="BackgroundImageFix" result="effect1_dropShadow_3757_566"/>
<feBlend mode="normal" in="SourceGraphic" in2="effect1_dropShadow_3757_566" result="shape"/>
</filter>
<linearGradient id="paint0_linear_3757_566" x1="11" y1="24" x2="11" y2="-4" gradientUnits="userSpaceOnUse">
<stop stop-color="#8642FF"/>
<stop offset="1" stop-color="#B398FF"/>
</linearGradient>
<linearGradient id="paint1_linear_3757_566" x1="12.2626" y1="20.9996" x2="12.2626" y2="3.74998" gradientUnits="userSpaceOnUse">
<stop stop-color="#F4EEFF"/>
<stop offset="0.279507" stop-color="#E2D1FF"/>
<stop offset="0.777164" stop-color="#F4EEFF"/>
</linearGradient>
<clipPath id="clip0_3757_566">
<rect width="24" height="24" rx="6" fill="white"/>
</clipPath>
</defs>
</svg>
