<svg width="26" height="24" viewBox="0 0 26 24" fill="none" xmlns="http://www.w3.org/2000/svg">
<g id="Group 26928">
<path id="Vector" d="M19.091 7.7539C19.3525 5.4275 20.6593 4.13501 23.0118 3.87678C20.6593 3.61822 19.3522 2.32607 19.091 0C18.8295 2.32607 17.5227 3.61855 15.1702 3.87678C17.5224 4.13501 18.8295 5.4275 19.091 7.7539Z" fill="#F0C419"/>
<path id="Vector_2" d="M0 6.52867C1.53456 6.35978 2.3869 5.517 2.55737 4C2.72784 5.517 3.58018 6.35978 5.11474 6.52867C3.58018 6.69723 2.72784 7.54001 2.55737 9.05701C2.3869 7.54001 1.53422 6.69723 0 6.52867Z" fill="#F0C419"/>
<path id="Vector_3" d="M9.96595 1C9.84082 2.11247 9.21588 2.73073 8.09079 2.85445C9.21588 2.97817 9.84116 3.59576 9.96595 4.70856C10.0911 3.59576 10.716 2.97817 11.8411 2.85445C10.716 2.73073 10.0907 2.11247 9.96595 1Z" fill="#FFE699"/>
<path id="Vector_4" d="M24.1249 8C23.9997 9.11247 23.3748 9.73073 22.2497 9.85445C23.3748 9.97817 24.0001 10.5958 24.1249 11.7086C24.25 10.5958 24.8749 9.97817 26 9.85445C24.8749 9.73073 24.2496 9.11247 24.1249 8Z" fill="#FFE699"/>
<path id="Vector_5" d="M19.3204 15.2845L19.1485 16.8581L20.5464 17.0061L20.7184 15.4326L19.3204 15.2845ZM13.6616 22.6154H11.6221V24H13.6616V22.6154ZM6.13527 16.8581L5.9634 15.2845L4.56545 15.4326L4.73731 17.0061L6.13527 16.8581ZM10.2189 14.3532L11.8963 11.3914L10.6683 10.717L8.99094 13.6787L10.2189 14.3532ZM13.3874 11.3914L15.0648 14.3532L16.2928 13.6787L14.6155 10.717L13.3874 11.3914ZM15.0648 14.3532C15.2165 14.6209 15.3561 14.8691 15.4913 15.0589C15.6306 15.2541 15.8205 15.4698 16.1115 15.5959L16.6781 14.3287C16.7305 14.3514 16.7216 14.3747 16.642 14.2632C16.5585 14.1461 16.4594 13.9729 16.2928 13.6787L15.0648 14.3532ZM17.2735 13.8127C17.031 14.0506 16.8871 14.1906 16.7739 14.2807C16.666 14.3667 16.6637 14.342 16.7199 14.3344L16.9124 15.706C17.2272 15.6631 17.4699 15.5072 17.6583 15.3571C17.8413 15.2113 18.0449 15.0103 18.2658 14.7937L17.2735 13.8127ZM16.1115 15.5959C16.363 15.705 16.6403 15.743 16.9124 15.706L16.7199 14.3344C16.7056 14.3363 16.6911 14.3344 16.6781 14.3287L16.1115 15.5959ZM7.01798 14.7937C7.2388 15.0103 7.44241 15.2113 7.62551 15.3571C7.81391 15.5072 8.05659 15.6631 8.37129 15.706L8.56388 14.3344C8.62013 14.342 8.61775 14.3667 8.50986 14.2807C8.39666 14.1906 8.25277 14.0506 8.01024 13.8127L7.01798 14.7937ZM8.99094 13.6787C8.82436 13.9729 8.72524 14.1461 8.64174 14.2632C8.56221 14.3747 8.5533 14.3514 8.60561 14.3287L9.17225 15.5959C9.46321 15.4698 9.65319 15.2541 9.79242 15.0589C9.9277 14.8692 10.0673 14.6209 10.2189 14.3532L8.99094 13.6787ZM8.37129 15.706C8.64342 15.743 8.92075 15.705 9.17225 15.5959L8.60561 14.3287C8.59264 14.3344 8.57815 14.3363 8.56388 14.3344L8.37129 15.706ZM11.6221 22.6154C10.2743 22.6154 9.3304 22.6141 8.60994 22.5233C7.90911 22.4349 7.51319 22.2714 7.21677 22.0101L6.27904 23.0418C6.86943 23.5623 7.58148 23.7895 8.43149 23.8967C9.26186 24.0013 10.3116 24 11.6221 24V22.6154ZM4.73731 17.0061C4.87619 18.2776 4.98639 19.523 5.17423 20.5329C5.26898 21.0424 5.38847 21.5224 5.55396 21.939C5.71805 22.3521 5.94443 22.7469 6.27904 23.0418L7.21677 22.0101C7.10796 21.9142 6.98409 21.7385 6.86336 21.4346C6.74404 21.1342 6.64414 20.7507 6.55725 20.2835C6.38179 19.3401 6.27959 18.1794 6.13527 16.8581L4.73731 17.0061ZM19.1485 16.8581C19.0041 18.1794 18.902 19.3401 18.7265 20.2835C18.6396 20.7507 18.5397 21.1342 18.4203 21.4346C18.2997 21.7385 18.1758 21.9142 18.067 22.0101L19.0047 23.0418C19.3393 22.7469 19.5657 22.3521 19.7298 21.939C19.8953 21.5224 20.0148 21.0424 20.1095 20.5329C20.2974 19.523 20.4075 18.2776 20.5464 17.0061L19.1485 16.8581ZM13.6616 24C14.9721 24 16.0219 24.0013 16.8523 23.8967C17.7022 23.7895 18.4143 23.5623 19.0047 23.0418L18.067 22.0101C17.7706 22.2714 17.3746 22.4349 16.6738 22.5233C15.9533 22.6141 15.0094 22.6154 13.6616 22.6154V24ZM11.4702 8.53846C11.4702 7.90121 11.9947 7.38462 12.6419 7.38462V6C11.2182 6 10.0642 7.13651 10.0642 8.53846H11.4702ZM12.6419 7.38462C13.289 7.38462 13.8136 7.90121 13.8136 8.53846H15.2196C15.2196 7.13651 14.0655 6 12.6419 6V7.38462ZM20.8437 12.2308C20.8437 12.6131 20.5289 12.9231 20.1407 12.9231V14.3077C21.3054 14.3077 22.2497 13.3778 22.2497 12.2308H20.8437ZM19.4377 12.2308C19.4377 11.8484 19.7524 11.5385 20.1407 11.5385V10.1538C18.9759 10.1538 18.0316 11.0837 18.0316 12.2308H19.4377ZM20.1407 11.5385C20.5289 11.5385 20.8437 11.8484 20.8437 12.2308H22.2497C22.2497 11.0837 21.3054 10.1538 20.1407 10.1538V11.5385ZM5.14309 12.9231C4.75483 12.9231 4.44008 12.6131 4.44008 12.2308H3.03406C3.03406 13.3778 3.9783 14.3077 5.14309 14.3077V12.9231ZM4.44008 12.2308C4.44008 11.8484 4.75483 11.5385 5.14309 11.5385V10.1538C3.9783 10.1538 3.03406 11.0837 3.03406 12.2308H4.44008ZM5.14309 11.5385C5.53135 11.5385 5.8461 11.8484 5.8461 12.2308H7.25212C7.25212 11.0837 6.30788 10.1538 5.14309 10.1538V11.5385ZM20.1407 12.9231C20.1379 12.9231 20.135 12.9231 20.1322 12.923L20.1159 14.3075C20.1242 14.3076 20.1324 14.3077 20.1407 14.3077V12.9231ZM20.7184 15.4326C20.7636 15.0173 20.8034 14.6546 20.8251 14.352C20.8465 14.0556 20.8545 13.7713 20.8208 13.5234L19.4272 13.7072C19.441 13.8086 19.4426 13.9761 19.4227 14.2542C19.4031 14.526 19.3667 14.8602 19.3204 15.2845L20.7184 15.4326ZM20.1322 12.923C19.9233 12.9206 19.7366 12.8292 19.6082 12.6829L18.5443 13.5881C18.9249 14.022 19.4875 14.3004 20.1159 14.3075L20.1322 12.923ZM19.6082 12.6829C19.5015 12.5612 19.4377 12.4042 19.4377 12.2308H18.0316C18.0316 12.749 18.2253 13.2245 18.5443 13.5881L19.6082 12.6829ZM18.2658 14.7937C18.9008 14.1708 19.2279 13.8569 19.4455 13.7246L18.707 12.5464C18.3134 12.7856 17.8413 13.2557 17.2735 13.8127L18.2658 14.7937ZM5.8461 12.2308C5.8461 12.4042 5.78225 12.5612 5.6755 12.6829L6.73946 13.5881C7.05847 13.2245 7.25212 12.749 7.25212 12.2308H5.8461ZM8.01024 13.8127C7.44237 13.2557 6.97032 12.7856 6.57673 12.5464L5.83823 13.7246C6.05585 13.8569 6.38295 14.1708 7.01798 14.7937L8.01024 13.8127ZM5.6755 12.6829C5.54718 12.8292 5.36048 12.9206 5.15156 12.923L5.16783 14.3075C5.7962 14.3004 6.35884 14.022 6.73946 13.5881L5.6755 12.6829ZM5.15156 12.923C5.14873 12.9231 5.14591 12.9231 5.14309 12.9231V14.3077C5.15135 14.3077 5.1596 14.3076 5.16783 14.3075L5.15156 12.923ZM5.9634 15.2845C5.91707 14.8602 5.88066 14.526 5.86111 14.2542C5.84111 13.9761 5.84269 13.8086 5.85648 13.7072L4.4629 13.5234C4.42918 13.7713 4.43728 14.0556 4.4586 14.352C4.48037 14.6546 4.52008 15.0173 4.56545 15.4326L5.9634 15.2845ZM13.8136 8.53846C13.8136 8.98619 13.5548 9.37559 13.1732 9.5673L13.8122 10.8007C14.646 10.3817 15.2196 9.52664 15.2196 8.53846H13.8136ZM13.1732 9.5673C13.0145 9.64703 12.8346 9.69231 12.6419 9.69231V11.0769C13.0618 11.0769 13.4602 10.9775 13.8122 10.8007L13.1732 9.5673ZM14.6155 10.717C14.4221 10.3756 14.2483 10.0684 14.0889 9.81711L12.8965 10.5509C13.0333 10.7665 13.1882 11.0395 13.3874 11.3914L14.6155 10.717ZM12.6419 9.69231C12.4492 9.69231 12.2693 9.64703 12.1106 9.5673L11.4716 10.8007C11.8236 10.9775 12.2219 11.0769 12.6419 11.0769V9.69231ZM12.1106 9.5673C11.729 9.37559 11.4702 8.98619 11.4702 8.53846H10.0642C10.0642 9.52664 10.6377 10.3817 11.4716 10.8007L12.1106 9.5673ZM11.8963 11.3914C12.0956 11.0395 12.2504 10.7665 12.3873 10.5509L11.1949 9.81711C11.0354 10.0684 10.8617 10.3756 10.6683 10.717L11.8963 11.3914Z" fill="#353C7C"/>
<path id="Vector (Stroke)" fill-rule="evenodd" clip-rule="evenodd" d="M5.8381 18.6823C5.8381 18.3055 6.13707 18 6.50587 18H18.9707C19.3395 18 19.6385 18.3055 19.6385 18.6823C19.6385 19.0591 19.3395 19.3646 18.9707 19.3646H6.50587C6.13707 19.3646 5.8381 19.0591 5.8381 18.6823Z" fill="#353C7C"/>
</g>
</svg>
