<svg width="16" height="16" viewBox="0 0 16 16" fill="none" xmlns="http://www.w3.org/2000/svg">
<path fill-rule="evenodd" clip-rule="evenodd" d="M3.3449 8.00095C3.34449 7.49622 3.4266 6.99468 3.5881 6.51535L0.838803 4.45703C0.286914 5.55996 0 6.7718 0 7.99992C0 9.22803 0.286914 10.4399 0.838803 11.5428L3.5881 9.47896C3.42737 9.00182 3.34528 8.50336 3.3449 8.00095Z" fill="#FBBC05"/>
<path fill-rule="evenodd" clip-rule="evenodd" d="M8.1821 3.27296C9.28121 3.27146 10.3466 3.64421 11.1958 4.32731L13.5771 1.99989C12.6354 1.18734 11.5152 0.597924 10.3034 0.277297C9.0915 -0.0433295 7.8205 -0.0865545 6.58883 0.150971C5.35716 0.388497 4.19789 0.900397 3.20086 1.64701C2.20382 2.39362 1.39579 3.35489 0.839355 4.45634L3.58866 6.51466C3.907 5.56937 4.52242 4.74674 5.347 4.1643C6.17158 3.58186 7.16313 3.26941 8.17999 3.27158" fill="#EB4335"/>
<path fill-rule="evenodd" clip-rule="evenodd" d="M8.1821 12.7268C7.16497 12.7294 6.17301 12.4173 5.34802 11.8349C4.52303 11.2526 3.90723 10.4299 3.58865 9.48438L0.839355 11.5427C1.51472 12.8842 2.56128 14.0131 3.8599 14.801C5.15852 15.5889 6.65705 16.0042 8.18492 15.9995C10.1561 16.0183 12.0615 15.3058 13.5179 14.0054L10.9032 12.0271C10.0827 12.5067 9.14032 12.7493 8.18492 12.7268" fill="#34A853"/>
<path fill-rule="evenodd" clip-rule="evenodd" d="M15.9958 7.99947C15.9889 7.50938 15.9265 7.02155 15.8097 6.54492H8.18213V9.63619H12.5725C12.4781 10.1264 12.2808 10.5921 11.9929 11.0038C11.7051 11.4155 11.3331 11.7642 10.9004 12.0278L13.5151 14.0061C14.3353 13.2315 14.9799 12.2968 15.4072 11.2626C15.8344 10.2284 16.0347 9.11781 15.9951 8.00292" fill="#4285F4"/>
</svg>
