<svg width="66" height="62" viewBox="0 0 66 62" fill="none" xmlns="http://www.w3.org/2000/svg">
<g filter="url(#filter0_d_4039_436)">
<rect x="15.999" y="13" width="34" height="34" rx="3" fill="url(#paint0_linear_4039_436)"/>
<rect x="15.999" y="13" width="34" height="34" rx="3" stroke="#EAEAEA" stroke-width="0.5"/>
</g>
<rect x="21.0986" y="16.2236" width="16.15" height="1.7" rx="0.85" fill="#E7ECFA"/>
<rect x="18.5488" y="39.3501" width="16.15" height="1.7" rx="0.85" fill="#E7ECFA"/>
<rect x="18.5488" y="42.75" width="23.8" height="1.7" rx="0.85" fill="#E7ECFA"/>
<ellipse cx="19.3988" cy="17.0736" rx="0.85" ry="0.85" fill="#E7ECFA"/>
<mask id="mask0_4039_436" style="mask-type:alpha" maskUnits="userSpaceOnUse" x="18" y="20" width="30" height="17">
<rect x="18.5488" y="20.6499" width="28.9" height="16.15" rx="2" fill="#E7ECFA"/>
</mask>
<g mask="url(#mask0_4039_436)">
<rect x="18.5488" y="20.6499" width="28.9" height="16.15" rx="2" fill="#E7ECFA"/>
<path d="M34.9001 32.1958C36.4982 30.5426 39.1577 30.5739 40.7165 32.2642L44.8992 36.7999H30.4492L34.9001 32.1958Z" fill="url(#paint1_linear_4039_436)"/>
<circle cx="39.0627" cy="24.8371" r="1.81367" fill="url(#paint2_linear_4039_436)"/>
<path d="M24.2091 29.7965C25.8065 28.078 28.5332 28.097 30.1064 29.8377L36.3992 36.8001H17.6992L24.2091 29.7965Z" fill="url(#paint3_linear_4039_436)"/>
</g>
<path d="M62.0955 43.9353L60.2979 43.0077C60.2979 43.0077 58.1823 50.2101 50.5469 53.0753C43.3469 55.7772 36.9314 52.8442 36.9314 52.8442C36.9314 52.8442 45.5602 54.164 50.0199 51.6709C54.8127 48.9918 57.9011 41.7709 57.9011 41.7709L56.2791 41.3115L60.8345 37.9999L62.0955 43.9353Z" fill="#EAEAEA"/>
<path d="M3.44336 19.7422L5.43167 20.1142C5.43167 20.1142 5.38883 12.6076 11.8791 7.66961C17.9994 3.01311 24.9871 3.9793 24.9871 3.9793C24.9871 3.9793 16.3429 5.19419 12.7874 8.86338C8.96644 12.8065 8.08274 20.6102 8.08274 20.6102L9.76829 20.5844L6.35634 25.0651L3.44336 19.7422Z" fill="#EAEAEA"/>
<g filter="url(#filter1_d_4039_436)">
<path fill-rule="evenodd" clip-rule="evenodd" d="M59.248 3.00499C60.866 2.90633 62.185 4.28464 62.0153 5.89667L60.6091 19.2556C60.4657 20.6171 59.2991 21.6392 57.9306 21.6022L47.2924 21.3147L45.8876 22.9629C45.8184 23.0441 45.6865 23.0131 45.6606 22.9097L45.248 21.2595L44.5512 21.2406C43.1312 21.2023 42 20.0401 42 18.6195V6.52375C42 5.1376 43.0789 3.99092 44.4625 3.90655L59.248 3.00499Z" fill="#A28CFF"/>
</g>
<path d="M48.4043 9.7459H55.3844M51.8946 8.60352V9.74569M54.0585 9.7459C54.0585 9.7459 53.4696 11.9827 52.0639 13.6721C50.6581 15.3616 49.1797 16.2182 49.1797 16.2182M53.4451 15.0753C53.4451 15.0753 52.5968 14.4328 51.7001 13.2907C50.8033 12.1485 50.3428 11.2681 50.3428 11.2681" stroke="url(#paint4_linear_4039_436)" stroke-width="1.60072" stroke-linecap="round" stroke-linejoin="round"/>
<g filter="url(#filter2_d_4039_436)">
<path fill-rule="evenodd" clip-rule="evenodd" d="M7.1598 57.9694C5.32212 58.0815 3.824 56.516 4.01674 54.685L5.34556 42.062C5.50835 40.5156 6.83344 39.3547 8.38783 39.3967L18.7062 39.6756L20.0898 38.0525C20.1684 37.9603 20.3182 37.9955 20.3476 38.1129L20.7522 39.7309L21.1023 39.7404C22.7152 39.7839 24 41.104 24 42.7174V54.1405C24 55.7149 22.7746 57.0174 21.2031 57.1132L7.1598 57.9694Z" fill="#A28CFF"/>
</g>
<path d="M11.3424 52.1286L14.5215 44.3946L18.3053 51.8514M12.3272 49.9165L17.1505 49.7245" stroke="url(#paint5_linear_4039_436)" stroke-width="1.59797" stroke-linecap="round" stroke-linejoin="round"/>
<defs>
<filter id="filter0_d_4039_436" x="7.74902" y="4.75" width="50.5" height="50.5" filterUnits="userSpaceOnUse" color-interpolation-filters="sRGB">
<feFlood flood-opacity="0" result="BackgroundImageFix"/>
<feColorMatrix in="SourceAlpha" type="matrix" values="0 0 0 0 0 0 0 0 0 0 0 0 0 0 0 0 0 0 127 0" result="hardAlpha"/>
<feMorphology radius="5" operator="erode" in="SourceAlpha" result="effect1_dropShadow_4039_436"/>
<feOffset/>
<feGaussianBlur stdDeviation="6.5"/>
<feComposite in2="hardAlpha" operator="out"/>
<feColorMatrix type="matrix" values="0 0 0 0 0 0 0 0 0 0 0 0 0 0 0 0 0 0 0.2 0"/>
<feBlend mode="normal" in2="BackgroundImageFix" result="effect1_dropShadow_4039_436"/>
<feBlend mode="normal" in="SourceGraphic" in2="effect1_dropShadow_4039_436" result="shape"/>
</filter>
<filter id="filter1_d_4039_436" x="38.5039" y="3" width="27.0224" height="27.0014" filterUnits="userSpaceOnUse" color-interpolation-filters="sRGB">
<feFlood flood-opacity="0" result="BackgroundImageFix"/>
<feColorMatrix in="SourceAlpha" type="matrix" values="0 0 0 0 0 0 0 0 0 0 0 0 0 0 0 0 0 0 127 0" result="hardAlpha"/>
<feOffset dy="3.49607"/>
<feGaussianBlur stdDeviation="1.74804"/>
<feComposite in2="hardAlpha" operator="out"/>
<feColorMatrix type="matrix" values="0 0 0 0 0 0 0 0 0 0 0 0 0 0 0 0 0 0 0.15 0"/>
<feBlend mode="normal" in2="BackgroundImageFix" result="effect1_dropShadow_4039_436"/>
<feBlend mode="normal" in="SourceGraphic" in2="effect1_dropShadow_4039_436" result="shape"/>
</filter>
<filter id="filter2_d_4039_436" x="2.01261" y="32.7113" width="29.2569" height="29.232" filterUnits="userSpaceOnUse" color-interpolation-filters="sRGB">
<feFlood flood-opacity="0" result="BackgroundImageFix"/>
<feColorMatrix in="SourceAlpha" type="matrix" values="0 0 0 0 0 0 0 0 0 0 0 0 0 0 0 0 0 0 127 0" result="hardAlpha"/>
<feOffset dx="2.64105" dy="-0.660263"/>
<feGaussianBlur stdDeviation="2.31422"/>
<feComposite in2="hardAlpha" operator="out"/>
<feColorMatrix type="matrix" values="0 0 0 0 0 0 0 0 0 0 0 0 0 0 0 0 0 0 0.1 0"/>
<feBlend mode="normal" in2="BackgroundImageFix" result="effect1_dropShadow_4039_436"/>
<feBlend mode="normal" in="SourceGraphic" in2="effect1_dropShadow_4039_436" result="shape"/>
</filter>
<linearGradient id="paint0_linear_4039_436" x1="32.999" y1="13" x2="32.999" y2="47" gradientUnits="userSpaceOnUse">
<stop stop-color="white"/>
<stop offset="1" stop-color="white"/>
</linearGradient>
<linearGradient id="paint1_linear_4039_436" x1="40.4531" y1="32.2099" x2="30.3644" y2="36.0993" gradientUnits="userSpaceOnUse">
<stop stop-color="#69BB66"/>
<stop offset="1" stop-color="#BFDAB8"/>
</linearGradient>
<linearGradient id="paint2_linear_4039_436" x1="38.1616" y1="23.6648" x2="40.6136" y2="26.855" gradientUnits="userSpaceOnUse">
<stop stop-color="#FFD945"/>
<stop offset="0.304" stop-color="#FFCD3E"/>
<stop offset="0.856" stop-color="#FFAD2B"/>
<stop offset="1" stop-color="#FFA325"/>
</linearGradient>
<linearGradient id="paint3_linear_4039_436" x1="30.6454" y1="30.6801" x2="17.4908" y2="35.6023" gradientUnits="userSpaceOnUse">
<stop stop-color="#69BB66"/>
<stop offset="1" stop-color="#BFDAB8"/>
</linearGradient>
<linearGradient id="paint4_linear_4039_436" x1="51.9962" y1="16.2182" x2="51.9962" y2="8.92079" gradientUnits="userSpaceOnUse">
<stop stop-color="#F4EEFF"/>
<stop offset="0.492905" stop-color="#DCC8FF"/>
<stop offset="1" stop-color="#F4EEFF"/>
</linearGradient>
<linearGradient id="paint5_linear_4039_436" x1="14.9254" y1="51.986" x2="14.6357" y2="44.7071" gradientUnits="userSpaceOnUse">
<stop stop-color="#F4EEFF"/>
<stop offset="0.492905" stop-color="#DCC8FF"/>
<stop offset="1" stop-color="#F4EEFF"/>
</linearGradient>
</defs>
</svg>
