<svg width="30" height="30" viewBox="0 0 30 30" fill="none" xmlns="http://www.w3.org/2000/svg">
<path d="M2 17.1023H17.2941M17.2941 17.1023L13.4706 13.916M17.2941 17.1023L13.4706 20.2886" stroke="#353C7C" stroke-width="1.5" stroke-linecap="round" stroke-linejoin="round"/>
<path d="M7.48022 12.3525C7.49329 9.73441 7.59731 8.31656 8.42607 7.39165C9.37383 6.33398 10.8992 6.33398 13.9498 6.33398H15.0284C18.079 6.33398 21.7711 6.33398 22.7188 7.39165C23.6665 8.44933 23.6665 10.1516 23.6665 13.5562V20.7784C23.6665 24.183 23.6665 25.8853 22.7188 26.943C21.7711 28.0007 18.079 28.0007 15.0284 28.0007H13.9498C10.8992 28.0007 9.37383 28.0007 8.42607 26.943C7.59731 26.018 7.49329 24.6002 7.48022 21.9821" stroke="#353C7C" stroke-width="1.5" stroke-linecap="round"/>
<path d="M22.0418 14.4167C25.6087 14.4167 28.5002 11.5252 28.5002 7.95833C28.5002 4.39149 25.6087 1.5 22.0418 1.5C18.475 1.5 15.5835 4.39149 15.5835 7.95833C15.5835 11.5252 18.475 14.4167 22.0418 14.4167Z" fill="#353C7C" stroke="white"/>
<path d="M22.0417 10.6667V5.25" stroke="white" stroke-linecap="round" stroke-linejoin="round"/>
<path d="M24.7502 7.95898L19.3335 7.95898" stroke="white" stroke-linecap="round" stroke-linejoin="round"/>
</svg>
