<svg width="40" height="40" viewBox="0 0 40 40" fill="none" xmlns="http://www.w3.org/2000/svg">
<rect width="40" height="40" rx="8" fill="url(#paint0_linear_3272_1916)"/>
<g filter="url(#filter0_d_3272_1916)">
<path d="M8 19.9998H21.1176M21.1176 19.9998L17.5882 17.0586M21.1176 19.9998L17.5882 22.9409" stroke="url(#paint1_linear_3272_1916)" stroke-width="1.5" stroke-linecap="round" stroke-linejoin="round" shape-rendering="crispEdges"/>
</g>
<g filter="url(#filter1_d_3272_1916)">
<path d="M14.0586 16C14.0707 13.825 14.1667 12.6471 14.9317 11.8787C15.8065 11 17.2145 11 20.0305 11H21.0261C23.8421 11 25.2502 11 26.1249 11.8787C26.9998 12.7574 26.9998 14.1716 26.9998 17V23C26.9998 25.8284 26.9998 27.2426 26.1249 28.1213C25.2502 29 23.8421 29 21.0261 29H20.0305C17.2145 29 15.8065 29 14.9317 28.1213C14.1667 27.3529 14.0707 26.175 14.0586 24" stroke="url(#paint2_linear_3272_1916)" stroke-width="1.5" stroke-linecap="round" shape-rendering="crispEdges"/>
</g>
<defs>
<filter id="filter0_d_3272_1916" x="2.25" y="14.3086" width="24.6177" height="17.3828" filterUnits="userSpaceOnUse" color-interpolation-filters="sRGB">
<feFlood flood-opacity="0" result="BackgroundImageFix"/>
<feColorMatrix in="SourceAlpha" type="matrix" values="0 0 0 0 0 0 0 0 0 0 0 0 0 0 0 0 0 0 127 0" result="hardAlpha"/>
<feOffset dy="3"/>
<feGaussianBlur stdDeviation="2.5"/>
<feComposite in2="hardAlpha" operator="out"/>
<feColorMatrix type="matrix" values="0 0 0 0 0 0 0 0 0 0 0 0 0 0 0 0 0 0 0.25 0"/>
<feBlend mode="normal" in2="BackgroundImageFix" result="effect1_dropShadow_3272_1916"/>
<feBlend mode="normal" in="SourceGraphic" in2="effect1_dropShadow_3272_1916" result="shape"/>
</filter>
<filter id="filter1_d_3272_1916" x="8.30859" y="8.25" width="24.4414" height="29.5" filterUnits="userSpaceOnUse" color-interpolation-filters="sRGB">
<feFlood flood-opacity="0" result="BackgroundImageFix"/>
<feColorMatrix in="SourceAlpha" type="matrix" values="0 0 0 0 0 0 0 0 0 0 0 0 0 0 0 0 0 0 127 0" result="hardAlpha"/>
<feOffset dy="3"/>
<feGaussianBlur stdDeviation="2.5"/>
<feComposite in2="hardAlpha" operator="out"/>
<feColorMatrix type="matrix" values="0 0 0 0 0 0 0 0 0 0 0 0 0 0 0 0 0 0 0.25 0"/>
<feBlend mode="normal" in2="BackgroundImageFix" result="effect1_dropShadow_3272_1916"/>
<feBlend mode="normal" in="SourceGraphic" in2="effect1_dropShadow_3272_1916" result="shape"/>
</filter>
<linearGradient id="paint0_linear_3272_1916" x1="18.3333" y1="40" x2="18.3333" y2="-6.66667" gradientUnits="userSpaceOnUse">
<stop stop-color="#8642FF"/>
<stop offset="1" stop-color="#B398FF"/>
</linearGradient>
<linearGradient id="paint1_linear_3272_1916" x1="14.7501" y1="22.9409" x2="14.7501" y2="17.3037" gradientUnits="userSpaceOnUse">
<stop stop-color="#F4EEFF"/>
<stop offset="0.492905" stop-color="#DCC8FF"/>
<stop offset="1" stop-color="#F4EEFF"/>
</linearGradient>
<linearGradient id="paint2_linear_3272_1916" x1="20.7179" y1="29" x2="20.7179" y2="11.75" gradientUnits="userSpaceOnUse">
<stop stop-color="#F4EEFF"/>
<stop offset="0.492905" stop-color="#DCC8FF"/>
<stop offset="1" stop-color="#F4EEFF"/>
</linearGradient>
</defs>
</svg>
