<svg width="30" height="30" viewBox="0 0 30 30" fill="none" xmlns="http://www.w3.org/2000/svg">
<path d="M23.1256 11.7502C23.4508 8.82487 25.0757 7.19962 28.0007 6.87491C25.0757 6.54977 23.4503 4.92495 23.1256 2C22.8005 4.92495 21.1756 6.5502 18.2505 6.87491C21.1751 7.19962 22.8005 8.82487 23.1256 11.7502Z" fill="#F0C419"/>
<path d="M2 8.00027C4.40021 7.73308 5.73337 6.39984 6 4C6.26663 6.39984 7.59979 7.73308 10 8.00027C7.59979 8.26692 6.26663 9.60016 6 12C5.73337 9.60016 4.39968 8.26692 2 8.00027Z" fill="#F0C419"/>
<path d="M10.1667 2C10.0221 3.29991 9.30003 4.02235 8 4.16692C9.30003 4.31148 10.0225 5.03313 10.1667 6.33344C10.3113 5.03313 11.0334 4.31148 12.3334 4.16692C11.0334 4.02235 10.3109 3.29991 10.1667 2Z" fill="#F0C419"/>
<path d="M7.4209 23.667H22.6071" stroke="#353C7C" stroke-width="1.5" stroke-miterlimit="10" stroke-linecap="round"/>
<path d="M13.9289 12.3027L11.6978 17.2184C11.4448 17.7756 10.7555 17.9771 10.2437 17.6414C9.34915 17.0547 8.13619 16.2526 7.96289 16.1048" stroke="#353C7C" stroke-width="1.5" stroke-miterlimit="10"/>
<path d="M7.51232 16.5867C7.14824 17.0238 6.60212 17.2861 6.01316 17.2861H5.98103C4.87808 17.2861 4 16.39 4 15.2861C4 14.1823 4.87808 13.2861 5.98103 13.2861C7.08399 13.2861 7.99419 14.1823 7.99419 15.2861C7.99419 15.7779 7.79074 16.237 7.51232 16.5867Z" stroke="#353C7C" stroke-width="1.5" stroke-miterlimit="10"/>
<path d="M6.33032 17.167L6.62981 20.2734C6.7744 21.6773 6.888 23.0481 7.07389 24.1646C7.17716 24.7284 7.30109 25.259 7.46633 25.7233C7.64189 26.1766 7.86909 26.6188 8.22022 26.9393C8.82954 27.5142 9.56278 27.7684 10.4406 27.89C11.2978 28.0006 13.828 28.0006 15.1808 28.0006C16.5337 28.0006 18.6715 28.0006 19.5286 27.89C20.4065 27.7684 21.1397 27.5142 21.749 26.9393C22.1002 26.6188 22.3274 26.1766 22.5029 25.7233C22.6682 25.259 22.7921 24.7284 22.8954 24.1646C23.0812 23.0481 23.1949 21.6773 23.3394 20.2734L23.6389 17.167" stroke="#353C7C" stroke-width="1.5" stroke-miterlimit="10"/>
<path d="M22.0646 16.1048C21.8913 16.2526 20.6784 17.0547 19.7838 17.6414C19.2721 17.9771 18.5827 17.7756 18.3298 17.2184L16.0986 12.3027" stroke="#353C7C" stroke-width="1.5" stroke-miterlimit="10"/>
<path d="M22.0059 15C22.0059 13.8962 22.9161 13 24.019 13C25.122 13 26.0001 13.8962 26.0001 15C26.0001 16.1038 25.122 17 24.019 17H23.9869C23.3872 17 22.8518 16.7377 22.4877 16.3005C22.2093 15.9508 22.0059 15.4918 22.0059 15Z" stroke="#353C7C" stroke-width="1.5" stroke-miterlimit="10"/>
<path d="M12.4875 9.5C12.4875 8.12264 13.6206 7 15.0023 7C16.3841 7 17.4803 8.12264 17.4803 9.5C17.4803 10.8774 16.3841 12 15.0023 12H14.9655C14.2193 12 13.5469 11.6698 13.0863 11.1321C12.7363 10.6981 12.4875 10.1132 12.4875 9.5Z" stroke="#353C7C" stroke-width="1.5" stroke-miterlimit="10"/>
</svg>
