
<svg width="20" height="20" viewBox="0 0 20 20" fill="none" xmlns="http://www.w3.org/2000/svg">
<g filter="url(#filter0_i_12501_1633)">
<path d="M5.65958 18.2272C5.20914 18.5132 4.63742 18.113 4.75194 17.5919L5.83064 12.6831C5.87665 12.4737 5.80744 12.2557 5.64907 12.1112L2.00474 8.78535C1.61954 8.43381 1.83527 7.7921 2.35459 7.74465L7.11454 7.30971C7.33887 7.28921 7.53281 7.1448 7.61674 6.93576L9.4432 2.38676C9.64473 1.88484 10.3553 1.88484 10.5568 2.38676L12.3833 6.93576C12.4672 7.1448 12.6611 7.28921 12.8855 7.30971L17.6454 7.74465C18.1647 7.7921 18.3805 8.43381 17.9953 8.78535L14.3509 12.1112C14.1926 12.2557 14.1233 12.4737 14.1694 12.6831L15.2481 17.5919C15.3626 18.113 14.7909 18.5132 14.3404 18.2272L10.3216 15.6753C10.1253 15.5506 9.87467 15.5506 9.67837 15.6753L5.65958 18.2272Z" fill="#EAEAEA"/>
</g>
<path d="M5.52557 18.0161C5.26282 18.183 4.92931 17.9495 4.99611 17.6455L6.07481 12.7368C6.14 12.4402 6.04195 12.1313 5.8176 11.9265L2.17326 8.60068C1.94856 8.39562 2.0744 8.02129 2.37734 7.99361L7.13729 7.55867C7.45508 7.52963 7.72984 7.32504 7.84874 7.02891L9.6752 2.47991C9.79276 2.18712 10.2072 2.18712 10.3248 2.47991L12.1513 7.02891C12.2702 7.32504 12.5449 7.52963 12.8627 7.55867L17.6227 7.99361C17.9256 8.02129 18.0514 8.39562 17.8267 8.60068L14.1824 11.9265C13.9581 12.1313 13.86 12.4402 13.9252 12.7368L15.0039 17.6455C15.0707 17.9495 14.7372 18.183 14.4744 18.0161L10.4556 15.4642C10.1775 15.2877 9.82246 15.2877 9.54436 15.4642L5.52557 18.0161Z" stroke="#C8D2DD" stroke-width="0.5"/>
<defs>
<filter id="filter0_i_12501_1633" x="1.80835" y="2.01025" width="16.3833" height="18.3123" filterUnits="userSpaceOnUse" color-interpolation-filters="sRGB">
<feFlood flood-opacity="0" result="BackgroundImageFix"/>
<feBlend mode="normal" in="SourceGraphic" in2="BackgroundImageFix" result="shape"/>
<feColorMatrix in="SourceAlpha" type="matrix" values="0 0 0 0 0 0 0 0 0 0 0 0 0 0 0 0 0 0 127 0" result="hardAlpha"/>
<feOffset dy="4"/>
<feGaussianBlur stdDeviation="1"/>
<feComposite in2="hardAlpha" operator="arithmetic" k2="-1" k3="1"/>
<feColorMatrix type="matrix" values="0 0 0 0 1 0 0 0 0 1 0 0 0 0 1 0 0 0 0.16 0"/>
<feBlend mode="normal" in2="shape" result="effect1_innerShadow_12501_1633"/>
</filter>
</defs>
</svg>
