<svg width="12" height="14" viewBox="0 0 12 14" fill="none" xmlns="http://www.w3.org/2000/svg">
<path d="M6 14C4.40872 14 2.88257 13.3896 1.75736 12.303C0.632143 11.2165 0 9.74278 0 8.20618C0 6.66958 0.632143 5.19588 1.75736 4.10933C2.88257 3.02278 4.40872 2.41236 6 2.41236H8.06897C8.23357 2.41236 8.39148 2.47551 8.50783 2.58791C8.62428 2.70031 8.68966 2.85276 8.68966 3.01172C8.68966 3.17068 8.62428 3.32313 8.50783 3.43553C8.39148 3.54793 8.23357 3.61108 8.06897 3.61108H6C5.05887 3.61108 4.1388 3.88058 3.35625 4.38549C2.5737 4.89041 1.96378 5.60807 1.60361 6.44773C1.24344 7.28732 1.1492 8.21129 1.33281 9.10266C1.51643 9.99403 1.96964 10.8128 2.63515 11.4554C3.30065 12.098 4.14856 12.5357 5.07161 12.713C5.9947 12.8903 6.95156 12.7993 7.82102 12.4515C8.69057 12.1037 9.43374 11.5147 9.95669 10.7591C10.4796 10.0034 10.7586 9.11497 10.7586 8.20618C10.7586 8.04723 10.824 7.89475 10.9404 7.78239C11.0568 7.66995 11.2147 7.60682 11.3793 7.60682C11.5439 7.60682 11.7018 7.66995 11.8182 7.78239C11.9346 7.89475 12 8.04723 12 8.20618C11.9978 9.74214 11.365 11.2146 10.2402 12.3007C9.11545 13.3868 7.59062 13.9979 6 14Z" fill="black"/>
<path d="M6 6.00853C5.91848 6.00893 5.83763 5.99359 5.76232 5.96338C5.68701 5.93317 5.61865 5.88874 5.56138 5.83272C5.44519 5.72036 5.37989 5.56804 5.37989 5.40917C5.37989 5.25037 5.44519 5.09803 5.56138 4.98565L7.60552 3.01175L5.56138 1.03786C5.50039 0.982989 5.45148 0.91682 5.41755 0.843298C5.38362 0.769777 5.36541 0.690413 5.36392 0.609931C5.36243 0.529457 5.37782 0.449518 5.40902 0.374886C5.44022 0.300261 5.48665 0.232462 5.54566 0.175546C5.60458 0.118631 5.67476 0.0737669 5.75206 0.043623C5.82935 0.0134792 5.91211 -0.00132891 5.99545 9.35777e-05C6.07879 0.00151606 6.16097 0.0191293 6.2371 0.0518864C6.31324 0.0846434 6.38177 0.131873 6.43862 0.190762L8.92138 2.58821C9.03766 2.70059 9.10287 2.85292 9.10287 3.01175C9.10287 3.17058 9.03766 3.32293 8.92138 3.4353L6.43862 5.83272C6.38135 5.88874 6.31299 5.93317 6.23768 5.96338C6.16237 5.99359 6.08152 6.00893 6 6.00853Z" fill="black"/>
</svg>
