<svg xmlns="http://www.w3.org/2000/svg" xmlns:xlink="http://www.w3.org/1999/xlink" width="18" height="18" viewBox="0 0 18 18"><defs><clipPath id="a"><rect width="18" height="18" fill="none"/></clipPath></defs><g transform="translate(0 0)" clip-path="url(#a)"><path d="M17.488,6A9.043,9.043,0,1,0,18,9a9,9,0,0,0-.512-3" transform="translate(0 -0.004)" fill="#e20a17"/><path d="M338.033,474.569a3.372,3.372,0,1,1,2.187-5.939,3.906,3.906,0,1,0,0,5.133,3.359,3.359,0,0,1-2.187.806" transform="translate(-329.737 -462.197)" fill="#ededed"/><path d="M981.578,648.41l.955,1.079,1.318-.582-.732,1.242.961,1.074-1.407-.312-.724,1.246-.138-1.434-1.409-.3,1.322-.575Z" transform="translate(-969.715 -641.341)" fill="#ededed"/></g></svg>